<svg xmlns="http://www.w3.org/2000/svg" width="50" height="88"><g fill="none"><path fill="#FFF3D7" d="M48.657 83.605a3.119 3.119 0 0 1-3.108 3.127l-40.977.042a3.107 3.107 0 0 1-2.202-.91 3.125 3.125 0 0 1-.916-2.204l-.027-26.567-.055-30.03-.024-22.426V4.15c0-.83.327-1.625.911-2.211a3.11 3.11 0 0 1 2.203-.916L45.44.981a3.112 3.112 0 0 1 3.114 3.117v14.874l.055 47.966.048 16.667z"/><path fill="#FCE3B1" d="M48.668 66.946l.018 16.684a3.118 3.118 0 0 1-3.117 3.127L4.517 86.8a3.115 3.115 0 0 1-2.206-.91 3.123 3.123 0 0 1-.917-2.205L1.366 57.11h5.027v14.714h9.211V47.418l5.51-5.518V28.127l3.208 3.21v25.758l9.281 9.294v9.775l9.217-9.23h5.845l.003.012z"/><path fill="#FFF" d="M48.654 11.338v7.809c-5.199.814-9.315 2.52-14.192 3.106-7.704.926-10.398-.926-18.823 3.473-4.594 2.402-10.16 2.183-14.268 1.488L1.346 4.846c8.817-1.238 12.791 6.237 18.546 8.827 7.19 3.242 14.618 0 22.274-1.852a22.669 22.669 0 0 1 6.488-.483z"/><path fill="#3985EC" d="M3.483 85.478a1.983 1.983 0 0 1-.996-1.719l-.021-18.447-1.134.121v4.302l-.338-.015c.122.331.24.66.338.995v.854c-.015.037-.033.083-.052.122a15.68 15.68 0 0 1-.304.666 81.42 81.42 0 0 1-.783 1.686v7.642a3.396 3.396 0 0 1 .146 1.15v.112c0 .037 0 .097-.015.146l-.025.17c0 .083-.027.159-.045.235-.02.085-.043.17-.07.252v.304c.221-.044.433-.129.624-.25a3.785 3.785 0 0 0 .116-.297.28.28 0 0 1 .055-.019.03.03 0 0 1 0-.015h.045l.305-.024v.59c.005.086.016.171.034.256 0 .073.027.146.045.216l.052.185a.793.793 0 0 0 .049.137c0 .028.021.058.033.085l.037.085c.032.078.069.155.11.229v.015c.036.064.076.13.118.195a2.053 2.053 0 0 0 .14.203c.037.052.077.1.12.146a1.5 1.5 0 0 0 .124.137l.588-.06h.016c.304-.089.575-.183.85-.277-.028-.04-.098-.076-.162-.113zm0 0a1.983 1.983 0 0 1-.996-1.719l-.021-18.447-1.134.121v4.302l-.338-.015c.122.331.24.66.338.995v.854c-.015.037-.033.083-.052.122a15.68 15.68 0 0 1-.304.666 81.42 81.42 0 0 1-.783 1.686v7.642a3.396 3.396 0 0 1 .146 1.15v.112c0 .037 0 .097-.015.146a1.236 1.236 0 0 1-.025.17c0 .083-.027.159-.045.235-.02.085-.043.17-.07.252v.304c.221-.044.433-.129.624-.25.037-.084.07-.17.1-.258 0-.027.022-.058.034-.088a.03.03 0 0 1 0-.015h.046l.305-.024v.59c.005.086.016.171.033.255 0 .073.027.146.046.216.018.07.033.125.052.186a.793.793 0 0 0 .048.137c0 .027.022.058.034.085l.036.085c.033.078.07.154.11.228v.015c.037.064.076.131.119.195a2.053 2.053 0 0 0 .14.204c.036.051.076.1.119.146.04.049.082.094.125.137l.588-.061a.02.02 0 0 0 .015 0c.305-.088.576-.182.85-.277.01-.009-.06-.045-.125-.082zM48.762 1.485a1.4 1.4 0 0 0-.1-.12l-.025-.026A4.25 4.25 0 0 0 45.538 0L4.388.046A4.262 4.262 0 0 0 .123 4.305l.085 79.448v.304a4.229 4.229 0 0 0 .198 1.004c.073.226.166.445.277.654.053.102.11.203.17.305.059.094.12.182.18.267A4.268 4.268 0 0 0 4.459 88l41.15-.046h.232a2.047 2.047 0 0 0 .375-.024.561.561 0 0 0 .082 0l.21-.04.162-.04a1.41 1.41 0 0 0 .173-.048.983.983 0 0 0 .143-.055c.07-.02.14-.045.208-.073.07-.027.125-.057.192-.088.094-.045.192-.088.28-.137.088-.048.18-.1.268-.158l.186-.13c.088-.065.174-.134.259-.208a4.216 4.216 0 0 0 1.505-3.24l-.085-79.457c0-1.019-.37-2.003-1.04-2.771h.004zM47.616 83.71a1.991 1.991 0 0 1-1.986 1.99l-41.15.045a2.274 2.274 0 0 1-.412-.04 1.83 1.83 0 0 1-.365-.121 2.628 2.628 0 0 1-.208-.107A1.983 1.983 0 0 1 2.5 83.76L2.414 4.302c0-1.099.889-1.991 1.99-1.996l41.15-.046a1.66 1.66 0 0 1 .204 0c.046.003.092.01.137.022l.1.02a1.671 1.671 0 0 1 .33.106 2.145 2.145 0 0 1 .642.427c.046.046.089.095.131.143.041.05.079.101.113.155.027.038.051.078.073.119a.967.967 0 0 1 .049.088 1.972 1.972 0 0 1 .22.907l.063 79.464zm-44.13 1.767a1.983 1.983 0 0 1-.996-1.719l-.021-18.447-1.134.121v4.302l-.338-.015c.122.331.24.66.338.995v.854c-.015.037-.033.083-.052.122a15.68 15.68 0 0 1-.304.666 81.42 81.42 0 0 1-.783 1.686v7.642a3.396 3.396 0 0 1 .146 1.15v.112c0 .037 0 .097-.015.146l-.025.17c0 .083-.027.159-.045.235-.02.085-.043.17-.07.252v.304c.221-.044.433-.129.624-.25a3.785 3.785 0 0 0 .116-.297.305.305 0 0 1 .052-.019.03.03 0 0 1 0-.015h.045l.305-.024v.591c.005.086.016.171.034.256 0 .073.027.146.045.216l.052.185a.793.793 0 0 0 .049.137c0 .028.021.058.033.085l.037.085c.032.078.069.155.11.229v.015c.036.064.076.13.118.195a2.053 2.053 0 0 0 .14.203c.037.052.077.1.12.146a1.5 1.5 0 0 0 .124.137l.588-.06h.016c.304-.089.575-.183.85-.277-.028-.04-.098-.076-.162-.113h.003zm0 0a1.983 1.983 0 0 1-.996-1.719l-.021-18.447-1.134.121v4.302l-.338-.015c.122.331.24.66.338.995v.854c-.015.037-.033.083-.052.122a15.68 15.68 0 0 1-.304.666 81.42 81.42 0 0 1-.783 1.686v7.642a3.396 3.396 0 0 1 .146 1.15v.112c0 .037 0 .097-.015.146l-.025.17c0 .083-.027.159-.045.235-.02.085-.043.17-.07.252v.304c.221-.044.433-.129.624-.25a3.785 3.785 0 0 0 .116-.297.28.28 0 0 1 .052-.019.03.03 0 0 1 0-.015h.045l.305-.024v.591c.005.086.016.171.034.256 0 .073.027.146.045.216l.052.185a.793.793 0 0 0 .049.137c0 .028.021.058.033.085l.037.085c.032.078.069.155.11.229v.015c.036.064.076.13.118.195a2.053 2.053 0 0 0 .14.203c.037.052.077.1.12.146a1.5 1.5 0 0 0 .124.137l.588-.06h.016c.304-.089.575-.183.85-.277-.028-.04-.098-.076-.162-.113h.003z"/><path fill="#FFF" d="M34.431 20.1L15.565 46.263l.013 11.832L34.44 30.83zm-.003 18.14L15.565 64.4l.013 11.834L34.44 48.969z" opacity=".45" style="mix-blend-mode:overlay"/></g></svg>