<svg xmlns="http://www.w3.org/2000/svg" width="98" height="88" viewBox="0 0 98 88">
    <g fill="none" fill-rule="evenodd">
        <path fill="#E0E4EC" fill-rule="nonzero" d="M95.484 82.721a3.07 3.07 0 0 1-.909 2.185 3.128 3.128 0 0 1-2.201.906l-41.007.042c-1.72.004-3.117-1.374-3.122-3.079l-.018-16.553-.052-47.855V4.158a3.07 3.07 0 0 1 .91-2.186 3.128 3.128 0 0 1 2.203-.905l41.007-.042a3.108 3.108 0 0 1 2.964 2.124c.101.31.154.633.155.958v23.656l.04 38.573.03 16.385z"/>
        <path fill="#E0E4EC" fill-rule="nonzero" d="M48.537 82.721c.002 1.704-1.39 3.088-3.108 3.091l-40.978.042a3.125 3.125 0 0 1-2.201-.899 3.072 3.072 0 0 1-.916-2.18l-.027-26.269-.055-29.691L1.228 4.64v-.482c0-.82.327-1.606.911-2.186a3.128 3.128 0 0 1 2.203-.905l40.978-.042a3.109 3.109 0 0 1 2.962 2.125c.1.31.151.632.152.957v14.707l.055 47.427.048 16.48z"/>
        <path fill="#C5CFDE" fill-rule="nonzero" d="M95.292 66.351l.019 16.395a3.07 3.07 0 0 1-.91 2.185 3.133 3.133 0 0 1-2.204.907l-41.053.042c-1.722.003-3.12-1.375-3.126-3.08L48 66.24h8.664v-8.822l4.017-3.974v10.18h6.66v-21.98h4.278v-11.48h4.306v21.458l3.32 3.288v15.238l6.113 6.049 9.934-9.846z"/>
        <path fill="#FFF" fill-rule="nonzero" d="M74.996 16.558c-5.838 2.063-10.87 3.669-22.006 2.29a39.388 39.388 0 0 0-5.002-.3V11.9c4.99.817 10.337 2.204 15.682 3.062 9.97 1.597 17.163-.462 11.326 1.597zM95.278 17.85v10.065c-1.296.13-2.6.162-3.9.1-5.033-.346-5.337-4.804-5.337-4.804-1.152-2.798.694-4.24 6.385-5.269a11.114 11.114 0 0 1 2.852-.093z"/>
        <path fill="#7E8FA4" fill-rule="nonzero" d="M51.311 84.573a1.957 1.957 0 0 1-.997-1.7l-.02-18.24-1.135.12v4.254l-.338-.016c.122.328.24.653.338.984v.845c-.015.036-.033.082-.052.12-.094.214-.192.434-.304.66-.241.526-.503 1.088-.784 1.666V80.822a3.321 3.321 0 0 1 .146 1.137v.111c0 .036 0 .096-.015.144l-.024.169c0 .081-.027.156-.046.232a2.507 2.507 0 0 1-.07.25v.3c.222-.044.434-.128.625-.247a3.716 3.716 0 0 0 .116-.294.275.275 0 0 1 .015-.04.03.03 0 0 1 0-.015h.046l.305-.024V83.13c.005.085.016.17.033.253 0 .072.028.144.046.213.018.07.033.123.052.184a.778.778 0 0 0 .048.135c0 .027.022.057.034.084.012.027.024.057.037.084.032.078.069.153.11.226v.015c.036.063.075.13.118.193a2.03 2.03 0 0 0 .14.201c.037.05.076.099.12.144.039.049.081.094.124.136l.588-.06h.016c.304-.088.576-.18.85-.274.012-.018-.058-.054-.122-.09zm0 0a1.957 1.957 0 0 1-.997-1.7l-.02-18.24-1.135.12v4.254l-.338-.016c.122.328.24.653.338.984v.845c-.015.036-.033.082-.052.12-.094.214-.192.434-.304.66-.241.526-.503 1.088-.784 1.666V80.822a3.321 3.321 0 0 1 .146 1.137v.111c0 .036 0 .096-.015.144a1.21 1.21 0 0 1-.024.169c0 .081-.027.156-.046.232a2.507 2.507 0 0 1-.07.25v.3c.222-.044.434-.128.625-.247.037-.084.07-.168.1-.255 0-.027.022-.057.034-.088a.03.03 0 0 1 0-.015h.046l.305-.024V83.12c.005.085.016.17.033.253 0 .072.028.144.046.213.018.07.033.123.052.184a.778.778 0 0 0 .048.135c0 .027.022.057.034.084.012.027.024.057.037.084.032.077.069.153.11.226v.015c.036.063.076.13.118.193a2.03 2.03 0 0 0 .14.201c.037.05.076.099.12.144.039.049.082.094.124.136l.588-.06h.016c.304-.088.576-.18.85-.274.01-.01-.061-.045-.125-.081zm45.292-83.05a1.388 1.388 0 0 0-.1-.117l-.025-.027a4.275 4.275 0 0 0-3.1-1.324L52.217.1C49.86.1 47.95 1.986 47.95 4.311l.107 78.556v.301a4.136 4.136 0 0 0 .198.993c.073.223.166.44.277.646a4.497 4.497 0 0 0 .35.565 4.286 4.286 0 0 0 3.427 1.694l41.162-.045h.232a2.071 2.071 0 0 0 .375-.024.568.568 0 0 0 .082 0l.21-.039.162-.04c.059-.011.117-.028.174-.047.036-.01.071-.02.106-.033.07-.02.14-.045.208-.072.07-.028.125-.058.192-.088.094-.045.192-.087.28-.135.088-.048.18-.1.268-.156l.186-.13a4.05 4.05 0 0 0 .26-.204 3.87 3.87 0 0 0 .374-.355 4.142 4.142 0 0 0 1.13-2.849l-.085-78.565A4.146 4.146 0 0 0 96.6 1.523h.003zm-1.146 81.302c0 1.084-.888 1.964-1.987 1.967l-41.162.045c-.138 0-.276-.014-.412-.039a1.846 1.846 0 0 1-.366-.12 2.64 2.64 0 0 1-.207-.105 1.957 1.957 0 0 1-.996-1.7L50.24 4.308c0-1.086.89-1.968 1.99-1.973l41.163-.045a1.68 1.68 0 0 1 .204 0 .82.82 0 0 1 .138.021l.1.021c.05.008.099.02.146.036.063.02.124.043.183.07a2.11 2.11 0 0 1 .643.421c.046.045.089.093.131.14.042.05.08.1.113.154.027.038.051.077.073.118a.953.953 0 0 1 .05.087 1.93 1.93 0 0 1 .22.896l.062 78.571zm-44.143 1.748a1.957 1.957 0 0 1-.997-1.7l-.02-18.24-1.135.12v4.254l-.338-.016c.122.328.24.653.338.984v.845c-.015.036-.033.082-.051.12-.095.214-.192.434-.305.66-.241.526-.503 1.088-.784 1.666V80.822a3.321 3.321 0 0 1 .146 1.137v.111c0 .036 0 .096-.014.144l-.025.169c0 .081-.027.156-.046.232a2.507 2.507 0 0 1-.07.25v.3c.222-.044.434-.128.625-.247a3.716 3.716 0 0 0 .131-.34.03.03 0 0 1 0-.015h.046l.305-.024V83.123c.005.085.016.17.033.253 0 .072.028.144.046.213.018.07.033.123.052.184a.778.778 0 0 0 .048.135c0 .027.022.057.034.084.012.027.024.057.037.084.032.077.069.153.11.226v.015c.036.063.076.13.118.193a2.03 2.03 0 0 0 .14.201c.037.05.076.099.12.144.039.049.082.094.124.136l.588-.06h.016c.304-.088.576-.18.85-.274.01-.012-.061-.048-.125-.084h.003zm0 0a1.957 1.957 0 0 1-.997-1.7l-.02-18.24-1.135.12v4.254l-.338-.016c.122.328.24.653.338.984v.845c-.015.036-.033.082-.051.12-.095.214-.192.434-.305.66-.241.526-.503 1.088-.784 1.666V80.822a3.321 3.321 0 0 1 .146 1.137v.111c0 .036 0 .096-.014.144l-.025.169c0 .081-.027.156-.046.232a2.507 2.507 0 0 1-.07.25v.3c.222-.044.434-.128.625-.247a3.716 3.716 0 0 0 .116-.294.275.275 0 0 1 .015-.04.03.03 0 0 1 0-.015h.046l.305-.024V83.13c.005.085.016.17.033.253 0 .072.028.144.046.213.018.07.033.123.052.184a.778.778 0 0 0 .048.135c0 .027.022.057.034.084.012.027.024.057.037.084.032.078.069.153.11.226v.015c.036.063.076.13.118.193a2.03 2.03 0 0 0 .14.201c.037.05.076.099.12.144.039.049.082.094.124.136l.588-.06h.016c.304-.088.576-.18.85-.274.01-.018-.061-.054-.125-.09h.003z"/>
        <path fill="#FFF" fill-rule="nonzero" d="M81.255 19.93L62.392 45.798l.012 11.699 18.863-26.958zM81.255 37.865L62.392 63.732l.012 11.7 18.863-26.958z" opacity=".45" style="mix-blend-mode:overlay"/>
        <path fill="#C5CFDE" fill-rule="nonzero" d="M48.548 66.249l.018 16.497c0 .819-.327 1.605-.912 2.185a3.136 3.136 0 0 1-2.205.907l-41.052.042a3.133 3.133 0 0 1-2.206-.9 3.07 3.07 0 0 1-.917-2.18l-.028-26.276h5.027v14.548h9.21V46.94l5.51-5.456V27.866l3.209 3.174v25.469l9.28 9.189v9.665l9.218-9.126h5.845l.003.012z"/>
        <path fill="#FFF" fill-rule="nonzero" d="M48.226 11.266v7.72c-5.165.806-9.255 2.493-14.1 3.072-7.654.916-10.33-.916-18.7 3.434-4.564 2.375-10.095 2.159-14.176 1.472L1.226 4.847c8.76-1.225 12.708 6.166 18.425 8.727 7.144 3.206 14.523 0 22.13-1.831a22.626 22.626 0 0 1 6.445-.477z"/>
        <path fill="#7E8FA4" fill-rule="nonzero" d="M3.363 84.573a1.957 1.957 0 0 1-.996-1.7l-.022-18.24-1.133.12v4.254l-.338-.016c.122.328.24.653.338.984v.845c-.015.036-.034.082-.052.12a15.21 15.21 0 0 1-.305.66c-.24.526-.502 1.088-.783 1.666V80.822a3.322 3.322 0 0 1 .146 1.137v.111c0 .036 0 .096-.015.144l-.024.169c0 .081-.027.156-.046.232a2.507 2.507 0 0 1-.07.25v.3c.222-.044.433-.128.625-.247a3.717 3.717 0 0 0 .116-.294.283.283 0 0 1 .054-.018.03.03 0 0 1 0-.016h.046l.305-.024V83.15c.005.085.016.17.033.253 0 .072.028.144.046.213.018.07.034.124.052.184a.778.778 0 0 0 .049.135c0 .027.02.057.033.084.012.027.024.057.037.084.032.078.069.153.11.226v.015c.036.063.075.13.118.193a2.03 2.03 0 0 0 .14.201c.037.05.076.099.12.145.039.048.081.093.124.135l.588-.06h.015c.305-.087.576-.18.85-.274-.027-.04-.097-.075-.161-.111zm0 0a1.957 1.957 0 0 1-.996-1.7l-.022-18.24-1.133.12v4.254l-.338-.016c.122.328.24.653.338.984v.845c-.015.036-.034.082-.052.12a15.21 15.21 0 0 1-.305.66c-.24.526-.502 1.088-.783 1.666V80.822a3.322 3.322 0 0 1 .146 1.137v.111c0 .036 0 .096-.015.144a1.21 1.21 0 0 1-.024.169c0 .081-.027.156-.046.232a2.507 2.507 0 0 1-.07.25v.3c.222-.044.433-.128.625-.247.036-.084.07-.168.1-.255 0-.027.022-.057.034-.088a.03.03 0 0 1 0-.015h.046l.304-.024V83.12c.005.085.017.17.034.253 0 .072.027.144.045.213l.052.184a.778.778 0 0 0 .049.135c0 .027.021.057.034.084l.036.084c.033.077.07.153.11.226v.015c.036.063.076.13.119.193a2.03 2.03 0 0 0 .14.201c.036.05.076.099.119.144.04.049.082.094.124.136l.589-.06h.015c.304-.088.576-.18.85-.274.009-.01-.061-.045-.125-.081zM48.64 1.523a1.388 1.388 0 0 0-.1-.117l-.024-.027A4.273 4.273 0 0 0 45.418.055L4.268.1C1.912.1.002 1.986.002 4.311l.086 78.556v.301a4.137 4.137 0 0 0 .198.993c.073.223.165.44.277.646.053.1.11.2.17.301.058.093.12.18.18.265a4.284 4.284 0 0 0 3.425 1.693l41.15-.045h.232a2.07 2.07 0 0 0 .375-.024.568.568 0 0 0 .082 0l.21-.039.161-.04c.06-.011.117-.028.174-.047.049-.015.097-.033.143-.054.07-.02.14-.045.207-.073.07-.027.125-.057.192-.087.095-.045.192-.087.28-.135.089-.048.18-.1.269-.157l.186-.129c.088-.063.173-.132.259-.204a3.87 3.87 0 0 0 .374-.355 4.143 4.143 0 0 0 1.13-2.849l-.085-78.565c0-1.007-.369-1.98-1.039-2.74h.003zm-1.145 81.302c0 1.084-.889 1.964-1.987 1.967l-41.15.045c-.138 0-.275-.014-.411-.039a1.845 1.845 0 0 1-.366-.12 2.639 2.639 0 0 1-.207-.105 1.957 1.957 0 0 1-.996-1.7L2.293 4.308c0-1.086.89-1.968 1.99-1.973l41.15-.045c.068-.004.136-.004.204 0a.82.82 0 0 1 .137.021l.101.021c.05.008.099.02.146.036.062.02.124.043.183.07a2.11 2.11 0 0 1 .643.421c.046.045.088.093.13.14.042.05.08.1.114.154.026.038.05.077.073.118a.953.953 0 0 1 .049.087 1.93 1.93 0 0 1 .22.896l.063 78.571zm-44.13 1.748a1.957 1.957 0 0 1-.996-1.7l-.022-18.24-1.133.12v4.254l-.338-.016c.122.328.24.653.338.984v.845c-.015.036-.034.082-.052.12a15.21 15.21 0 0 1-.305.66c-.24.526-.502 1.088-.783 1.666V80.822a3.322 3.322 0 0 1 .146 1.137v.111c0 .036 0 .096-.015.144l-.024.169c0 .081-.027.156-.046.232a2.507 2.507 0 0 1-.07.25v.3c.222-.044.433-.128.625-.247a3.717 3.717 0 0 0 .116-.294.307.307 0 0 1 .051-.018.03.03 0 0 1 0-.016h.046l.305-.024V83.15c.005.085.016.17.033.253 0 .072.028.144.046.213.018.07.034.124.052.184a.778.778 0 0 0 .049.135c0 .027.02.057.033.084.012.027.024.057.037.084.032.078.069.153.11.226v.015c.036.063.075.13.118.193a2.03 2.03 0 0 0 .14.201c.037.05.076.099.12.145.039.048.081.093.124.135l.588-.06h.015c.305-.087.576-.18.85-.274-.027-.04-.097-.075-.161-.111h.003zm0 0a1.957 1.957 0 0 1-.996-1.7l-.022-18.24-1.133.12v4.254l-.338-.016c.122.328.24.653.338.984v.845c-.015.036-.034.082-.052.12a15.21 15.21 0 0 1-.305.66c-.24.526-.502 1.088-.783 1.666V80.822a3.322 3.322 0 0 1 .146 1.137v.111c0 .036 0 .096-.015.144l-.024.169c0 .081-.027.156-.046.232a2.507 2.507 0 0 1-.07.25v.3c.222-.044.433-.128.625-.247a3.717 3.717 0 0 0 .116-.294.283.283 0 0 1 .051-.018.03.03 0 0 1 0-.016h.046l.305-.024V83.15c.005.085.016.17.033.253 0 .072.028.144.046.213.018.07.034.124.052.184a.778.778 0 0 0 .049.135c0 .027.02.057.033.084.012.027.024.057.037.084.032.078.069.153.11.226v.015c.036.063.075.13.118.193a2.03 2.03 0 0 0 .14.201c.037.05.076.099.12.145.039.048.081.093.124.135l.588-.06h.015c.305-.087.576-.18.85-.274-.027-.04-.097-.075-.161-.111h.003z"/>
        <path fill="#FFF" fill-rule="nonzero" d="M34.31 19.93L15.446 45.798l.012 11.699L34.32 30.539zM34.308 37.865L15.445 63.732l.012 11.7L34.32 48.475z" opacity=".45" style="mix-blend-mode:overlay"/>
        <path stroke="#7E8FA4" stroke-linecap="round" stroke-linejoin="round" stroke-width="2" d="M2 3l47 40.54L4 85.066M96 3L49 43.54l45 41.527"/>
    </g>
</svg>
