<svg xmlns="http://www.w3.org/2000/svg" width="146" height="87" viewBox="0 0 146 87">
    <g fill="none" fill-rule="nonzero">
        <path fill="#FFF3D7" d="M96.604 81.792a3.02 3.02 0 0 1-.908 2.16 3.146 3.146 0 0 1-2.202.896l-41.006.042c-1.72.003-3.118-1.36-3.123-3.045l-.018-16.367-.052-47.318V4.111a3.02 3.02 0 0 1 .91-2.16 3.146 3.146 0 0 1 2.204-.896l41.006-.042c1.349-.003 2.546.845 2.965 2.101.1.306.153.625.155.946v23.391l.04 38.14.03 16.2z"/>
        <path fill="#FCE3B1" d="M96.413 65.606l.018 16.21a3.02 3.02 0 0 1-.91 2.16 3.151 3.151 0 0 1-2.204.897l-41.052.042c-1.722.003-3.121-1.36-3.126-3.045l-.019-16.374h8.664v-8.723l4.017-3.93V62.91h6.66V41.176h4.278V29.824h4.306v21.218l3.32 3.251V69.36l6.113 5.98 9.935-9.734z"/>
        <path fill="#FFF" d="M76.116 16.372c-5.837 2.04-10.87 3.628-22.006 2.265a39.83 39.83 0 0 0-5.001-.297v-6.575c4.989.808 10.337 2.18 15.682 3.028 9.969 1.58 17.163-.457 11.325 1.58zM96.398 17.649v9.953c-1.296.127-2.6.16-3.9.097-5.032-.34-5.336-4.749-5.336-4.749-1.153-2.766.693-4.191 6.384-5.21a11.239 11.239 0 0 1 2.852-.091z"/>
        <path fill="#3985EC" d="M51.431 83.622a1.931 1.931 0 0 1-.996-1.68l-.022-18.035-1.133.119v4.205l-.339-.015c.122.324.241.646.339.973v.836l-.052.119c-.095.21-.192.428-.305.65a78.77 78.77 0 0 1-.783 1.649V79.914a3.25 3.25 0 0 1 .146 1.124v.11c0 .036 0 .095-.015.143l-.025.166c0 .08-.027.155-.045.23a2.457 2.457 0 0 1-.07.246v.298c.221-.044.433-.127.624-.244a3.65 3.65 0 0 0 .116-.292.27.27 0 0 1 .015-.038.029.029 0 0 1 0-.015h.046l.305-.024v.577c.005.084.016.167.033.25 0 .071.028.142.046.21.018.07.034.123.052.182.012.046.028.091.049.134 0 .027.021.057.033.083l.037.084c.032.076.069.15.11.223v.015c.036.062.076.127.118.19a2.006 2.006 0 0 0 .14.2c.037.05.077.097.12.142.04.048.082.092.124.134l.589-.06c.005.002.01.002.015 0 .305-.086.576-.178.85-.27.012-.018-.058-.054-.122-.09zm0 0a1.931 1.931 0 0 1-.996-1.68l-.022-18.035-1.133.119v4.205l-.339-.015c.122.324.241.646.339.973v.836l-.052.119c-.095.21-.192.428-.305.65a78.77 78.77 0 0 1-.783 1.649V79.914a3.25 3.25 0 0 1 .146 1.124v.11c0 .036 0 .095-.015.143a1.183 1.183 0 0 1-.025.166c0 .08-.027.155-.045.23a2.457 2.457 0 0 1-.07.246v.298c.221-.044.433-.127.624-.244a3.65 3.65 0 0 0 .101-.253c0-.027.021-.057.033-.086a.029.029 0 0 1 0-.015h.046l.305-.024v.577c.005.084.016.167.033.25 0 .071.028.143.046.21.018.07.034.123.052.182.012.046.028.091.049.134 0 .027.021.057.033.083.013.027.025.057.037.084.032.076.069.15.11.223v.015c.036.062.076.128.118.19a2.006 2.006 0 0 0 .14.2c.037.05.077.097.12.142.04.048.082.092.124.134l.589-.06c.005.002.01.002.015 0 .305-.086.576-.178.85-.27.01-.01-.06-.045-.125-.08zM96.724 1.506a1.377 1.377 0 0 0-.1-.116l-.025-.027a4.299 4.299 0 0 0-3.1-1.309L52.336.1C49.98.1 48.07 1.963 48.07 4.263l.106 77.673v.298a4.047 4.047 0 0 0 .198.981c.073.22.166.435.278.64.053.099.11.198.17.297.058.092.12.178.18.262a4.303 4.303 0 0 0 3.426 1.674l41.163-.045h.231a2.094 2.094 0 0 0 .375-.024.575.575 0 0 0 .082 0l.21-.038.162-.039c.06-.012.117-.028.174-.047.036-.01.072-.02.107-.033.07-.02.14-.044.207-.071.07-.027.125-.057.192-.087.094-.044.192-.086.28-.133.089-.048.18-.099.269-.155l.185-.128c.089-.062.174-.13.26-.202.132-.109.258-.226.374-.351a4.071 4.071 0 0 0 1.131-2.817l-.085-77.682a4.072 4.072 0 0 0-1.024-2.73h.003zm-1.146 80.388c0 1.072-.889 1.942-1.987 1.946l-41.163.044a2.36 2.36 0 0 1-.412-.038 1.86 1.86 0 0 1-.365-.12 2.652 2.652 0 0 1-.208-.104 1.931 1.931 0 0 1-.996-1.68L50.362 4.26c0-1.074.89-1.946 1.99-1.951l41.162-.045c.068-.004.137-.004.205 0a.83.83 0 0 1 .137.021l.1.02a1.696 1.696 0 0 1 .33.104c.118.049.232.108.338.18.109.07.21.15.305.237.045.045.088.093.13.14.042.048.08.099.113.152.027.037.052.076.074.116a.94.94 0 0 1 .048.086 1.89 1.89 0 0 1 .22.886l.064 77.688zm-44.144 1.728a1.931 1.931 0 0 1-.996-1.68l-.022-18.035-1.133.119v4.205l-.339-.015c.122.324.241.646.339.973v.836l-.052.119c-.095.21-.192.428-.305.65a78.77 78.77 0 0 1-.783 1.649V79.914a3.25 3.25 0 0 1 .146 1.124v.11c0 .036 0 .095-.015.143l-.025.166c0 .08-.027.155-.045.23a2.457 2.457 0 0 1-.07.246v.298c.221-.044.433-.127.624-.244a3.65 3.65 0 0 0 .131-.336.029.029 0 0 1 0-.015h.046l.305-.024v.577c.005.084.016.167.033.25 0 .071.028.143.046.21.018.07.034.123.052.182.012.046.028.091.049.134 0 .027.021.057.033.083.013.027.025.057.037.084.032.076.069.15.11.223v.015c.036.062.076.128.118.19a2.006 2.006 0 0 0 .14.2c.037.05.077.097.12.142.04.048.082.092.124.134l.589-.06c.005.002.01.002.015 0 .305-.086.576-.178.85-.27.01-.012-.06-.048-.125-.084h.003zm0 0a1.931 1.931 0 0 1-.996-1.68l-.022-18.035-1.133.119v4.205l-.339-.015c.122.324.241.646.339.973v.836l-.052.119c-.095.21-.192.428-.305.65a78.77 78.77 0 0 1-.783 1.649V79.914a3.25 3.25 0 0 1 .146 1.124v.11c0 .036 0 .095-.015.143l-.025.166c0 .08-.027.155-.045.23a2.457 2.457 0 0 1-.07.246v.298c.221-.044.433-.127.624-.244a3.65 3.65 0 0 0 .116-.292.27.27 0 0 1 .015-.038.029.029 0 0 1 0-.015h.046l.305-.024v.577c.005.084.016.167.033.25 0 .071.028.142.046.21.018.07.034.123.052.182.012.046.028.091.049.134 0 .027.021.057.033.083.013.027.025.057.037.084.032.076.069.15.11.223v.015c.036.062.076.127.118.19a2.006 2.006 0 0 0 .14.2c.037.05.077.097.12.142.04.048.082.092.124.134l.589-.06c.005.002.01.002.015 0 .305-.086.576-.178.85-.27.01-.018-.06-.054-.125-.09h.003z"/>
        <path fill="#FFF" d="M82.375 19.706L63.513 45.284l.012 11.567 18.862-26.655zM82.375 37.44L63.513 63.016l.012 11.569 18.862-26.656z" opacity=".45" style="mix-blend-mode:overlay"/>
        <g>
            <path fill="#FFF3D7" d="M144.79 81.792c.001 1.685-1.391 3.053-3.112 3.056l-41.017.042a3.148 3.148 0 0 1-2.203-.89 3.02 3.02 0 0 1-.917-2.155l-.024-21.573-.037-33.38V4.113c0-.811.328-1.589.912-2.162a3.15 3.15 0 0 1 2.206-.895l41.017-.042c1.348-.002 2.545.846 2.965 2.101.1.306.151.625.152.947l.04 35.536.018 42.195z"/>
            <path fill="#FCE3B1" d="M144.662 81.816c.002 1.686-1.392 3.054-3.114 3.057l-41.052.042a3.151 3.151 0 0 1-2.206-.89 3.02 3.02 0 0 1-.917-2.155l-.025-21.581 2.916-2.855V42.965l6.119-5.99v21.033h19.766v9.542h4.257v-5.005l4.72-4.617V48.91l9.505-9.306.03 42.212z"/>
            <path fill="#FFF" d="M134.17 28.608c-5.686.564-8.383-2.672-16.473.451s-6.035-.567-10.793-1.938c-2.433-.7-5.993-.449-9.568-.078v-8.418c4.67 1.128 9.489 2.692 12.015 1.939 4.18-1.244 6.035.115 10.909 3.17 4.874 3.054 9.629 0 16.825-.793 7.197-.792 2.77 5.1-2.915 5.667z"/>
            <path fill="#3985EC" d="M99.601 83.622a1.933 1.933 0 0 1-.992-1.68l-.021-18.035-1.129.119v4.205l-.337-.015c.122.324.24.646.337.973v.836c-.015.035-.033.08-.051.119a14.99 14.99 0 0 1-.304.65c-.24.521-.5 1.078-.78 1.649V79.914a3.263 3.263 0 0 1 .146 1.124v.11c0 .036 0 .095-.015.143l-.024.166c0 .08-.028.155-.046.23a2.466 2.466 0 0 1-.07.246v.298c.221-.044.432-.127.622-.244a3.66 3.66 0 0 0 .116-.292.284.284 0 0 1 .082-.018.03.03 0 0 1 0-.015h.045l.304-.023v.577c.005.084.016.167.033.25 0 .07.027.142.045.21.019.07.034.123.052.182.012.046.028.09.049.134 0 .027.02.056.033.083l.036.083c.033.077.07.151.11.224v.014c.036.063.075.128.118.19a2.006 2.006 0 0 0 .14.2 1.4 1.4 0 0 0 .118.143c.04.047.082.092.124.134l.586-.06c.005.002.01.002.015 0 .303-.086.573-.178.846-.27a1.82 1.82 0 0 0-.188-.11zm0 0a1.933 1.933 0 0 1-.992-1.68l-.021-18.035-1.129.119v4.205l-.337-.015c.122.324.24.646.337.973v.836c-.015.035-.033.08-.051.119a14.99 14.99 0 0 1-.304.65c-.24.521-.5 1.078-.78 1.649V79.914a3.263 3.263 0 0 1 .146 1.124v.11c0 .036 0 .095-.015.143a1.188 1.188 0 0 1-.024.166c0 .08-.028.155-.046.23a2.466 2.466 0 0 1-.07.246v.298c.221-.044.432-.127.622-.244a3.66 3.66 0 0 0 .1-.253c0-.027.022-.057.034-.086a.03.03 0 0 1 0-.015h.045l.304-.024v.577c.005.084.016.167.033.25 0 .071.027.143.046.21.018.07.033.123.051.182.012.046.028.091.049.134 0 .027.021.057.033.083.012.027.024.057.037.084.032.076.068.15.109.223v.015c.036.062.076.128.118.19a2.006 2.006 0 0 0 .14.2 1.4 1.4 0 0 0 .118.142c.04.048.082.092.124.134l.586-.06c.005.002.01.002.015 0 .304-.086.574-.178.847-.27.009-.01-.058-.045-.125-.08zM144.69 1.506a1.375 1.375 0 0 0-.1-.116l-.024-.027A4.27 4.27 0 0 0 141.48.054L100.502.1c-2.346 0-4.247 1.864-4.247 4.164l.085 77.673v.298a4.064 4.064 0 0 0 .197.981c.073.22.165.435.276.64a4.445 4.445 0 0 0 .349.56 4.277 4.277 0 0 0 3.41 1.673l40.978-.045h.23a2.075 2.075 0 0 0 .373-.024.57.57 0 0 0 .082 0l.21-.038.16-.039c.06-.012.117-.028.173-.047.036-.01.072-.02.107-.033.07-.02.139-.044.206-.071.07-.027.124-.057.191-.087.094-.044.191-.086.28-.133.087-.048.178-.099.266-.155l.185-.128c.088-.062.173-.13.258-.202.132-.109.257-.226.373-.351a4.08 4.08 0 0 0 1.126-2.817l-.085-77.682a4.082 4.082 0 0 0-.995-2.73zm-1.135 80.388c0 1.072-.884 1.942-1.978 1.946l-40.978.044c-.137 0-.274-.014-.41-.038a1.846 1.846 0 0 1-.363-.12 2.635 2.635 0 0 1-.207-.104 1.933 1.933 0 0 1-.992-1.68L98.542 4.26c0-1.074.886-1.946 1.982-1.951l40.977-.045c.068-.004.136-.004.203 0 .046.003.092.01.137.021l.1.02a1.683 1.683 0 0 1 .328.104c.118.049.231.108.337.18.108.07.21.15.303.237.045.045.088.093.13.14.041.048.079.099.113.152.026.037.05.076.073.116a.94.94 0 0 1 .048.086 1.897 1.897 0 0 1 .218.886l.064 77.688zM99.61 83.622a1.933 1.933 0 0 1-.992-1.68l-.021-18.035-1.129.119v4.205l-.336-.015c.12.324.24.646.336.973v.836c-.015.035-.033.08-.051.119a14.99 14.99 0 0 1-.304.65c-.24.521-.5 1.078-.78 1.649V79.914a3.263 3.263 0 0 1 .146 1.124v.11c0 .036 0 .095-.015.143l-.024.166c0 .08-.027.155-.046.23a2.466 2.466 0 0 1-.07.246v.298c.221-.044.432-.127.623-.244a3.66 3.66 0 0 0 .115-.292.308.308 0 0 1 .073-.018.03.03 0 0 1 0-.015h.045l.304-.023v.577c.005.084.016.167.033.25 0 .07.027.142.045.21.019.07.034.123.052.182.012.046.028.09.049.134 0 .027.02.056.033.083l.036.083c.033.077.07.151.11.224v.014c.036.063.075.128.118.19a2.006 2.006 0 0 0 .14.2 1.4 1.4 0 0 0 .118.143c.04.047.082.092.124.134l.586-.06c.005.002.01.002.015 0 .303-.086.573-.178.846-.27a1.82 1.82 0 0 0-.188-.11h.01zm0 0a1.933 1.933 0 0 1-.992-1.68l-.021-18.035-1.129.119v4.205l-.336-.015c.12.324.24.646.336.973v.836c-.015.035-.033.08-.051.119a14.99 14.99 0 0 1-.304.65c-.24.521-.5 1.078-.78 1.649V79.914a3.263 3.263 0 0 1 .146 1.124v.11c0 .036 0 .095-.015.143l-.024.166c0 .08-.027.155-.046.23a2.466 2.466 0 0 1-.07.246v.298c.221-.044.432-.127.623-.244a3.66 3.66 0 0 0 .115-.292.284.284 0 0 1 .073-.018.03.03 0 0 1 0-.015h.045l.304-.023v.577c.005.084.016.167.033.25 0 .07.027.142.045.21.019.07.034.123.052.182.012.046.028.09.049.134 0 .027.02.056.033.083l.036.083c.033.077.07.151.11.224v.014c.036.063.075.128.118.19a2.006 2.006 0 0 0 .14.2 1.4 1.4 0 0 0 .118.143c.04.047.082.092.124.134l.586-.06c.005.002.01.002.015 0 .303-.086.573-.178.846-.27a1.82 1.82 0 0 0-.188-.11h.01z"/>
            <path fill="#FFF" d="M130.56 19.706l-18.862 25.578.015 11.567 18.86-26.655zM130.563 37.44l-18.865 25.576.012 11.569 18.862-26.656z" opacity=".45" style="mix-blend-mode:overlay"/>
        </g>
        <g>
            <path fill="#FFF3D7" d="M48.657 81.792c.002 1.685-1.389 3.053-3.108 3.056l-40.977.042A3.143 3.143 0 0 1 2.37 84a3.021 3.021 0 0 1-.916-2.155l-.027-25.974-.055-29.357-.024-21.926V4.11c0-.81.327-1.588.911-2.16a3.146 3.146 0 0 1 2.203-.896l40.978-.042c1.347-.002 2.543.846 2.962 2.101.1.306.152.625.152.947v14.542l.055 46.894.048 16.295z"/>
            <path fill="#FCE3B1" d="M48.668 65.505l.018 16.311c.001.81-.327 1.587-.911 2.16a3.154 3.154 0 0 1-2.206.897l-41.052.042a3.151 3.151 0 0 1-2.206-.89 3.02 3.02 0 0 1-.917-2.155l-.028-25.981h5.027v14.385h9.211V46.413l5.51-5.395V27.553l3.208 3.138v25.183l9.281 9.086v9.556l9.217-9.023h5.845l.003.012z"/>
            <path fill="#FFF" d="M48.654 11.139v7.635c-5.199.795-9.315 2.463-14.192 3.036-7.704.906-10.398-.905-18.823 3.396-4.594 2.348-10.16 2.134-14.268 1.455L1.346 4.793c8.817-1.211 12.791 6.097 18.546 8.629 7.19 3.17 14.618 0 22.274-1.811a23.173 23.173 0 0 1 6.488-.472z"/>
            <path fill="#3985EC" d="M3.483 83.622a1.931 1.931 0 0 1-.996-1.68l-.021-18.035-1.134.119v4.205l-.338-.015c.122.324.24.646.338.973v.836c-.015.035-.033.08-.052.119a14.96 14.96 0 0 1-.304.65c-.241.521-.503 1.078-.783 1.649V79.914a3.25 3.25 0 0 1 .146 1.124v.11c0 .036 0 .095-.015.143l-.025.166c0 .08-.027.155-.045.23a2.458 2.458 0 0 1-.07.246v.298c.221-.044.433-.127.624-.244a3.65 3.65 0 0 0 .116-.292.285.285 0 0 1 .055-.018.03.03 0 0 1 0-.015h.045l.305-.023v.577c.005.084.016.167.034.25 0 .07.027.142.045.21.019.07.034.123.052.182.012.046.028.09.049.134 0 .027.021.056.033.083l.037.083c.032.077.069.151.11.224v.014c.036.063.076.128.118.19a2.006 2.006 0 0 0 .14.2c.037.05.077.098.12.143.039.047.082.092.124.134l.588-.06c.005.002.01.002.016 0 .304-.086.575-.178.85-.27-.028-.04-.098-.075-.162-.11zm0 0a1.931 1.931 0 0 1-.996-1.68l-.021-18.035-1.134.119v4.205l-.338-.015c.122.324.24.646.338.973v.836c-.015.035-.033.08-.052.119a14.96 14.96 0 0 1-.304.65c-.241.521-.503 1.078-.783 1.649V79.914a3.25 3.25 0 0 1 .146 1.124v.11c0 .036 0 .095-.015.143a1.183 1.183 0 0 1-.025.166c0 .08-.027.155-.045.23a2.458 2.458 0 0 1-.07.246v.298c.221-.044.433-.127.624-.244a3.65 3.65 0 0 0 .1-.253c0-.027.022-.057.034-.086a.03.03 0 0 1 0-.015h.046l.305-.024v.577c.005.084.016.167.033.25 0 .071.027.143.046.21.018.07.033.123.052.182.012.046.028.091.048.134 0 .027.022.057.034.083l.036.084c.033.076.07.15.11.223v.015c.037.062.076.128.119.19a2.006 2.006 0 0 0 .14.2c.036.05.076.097.119.142.04.048.082.092.125.134l.588-.06c.005.002.01.002.015 0 .305-.086.576-.178.85-.27.01-.01-.06-.045-.125-.08zM48.762 1.506a1.377 1.377 0 0 0-.1-.116l-.025-.027A4.297 4.297 0 0 0 45.538.054L4.388.1C2.032.1.123 1.963.123 4.263l.085 77.673v.298a4.048 4.048 0 0 0 .198.981 3.9 3.9 0 0 0 .277.64c.053.099.11.198.17.297.059.092.12.178.18.262a4.301 4.301 0 0 0 3.425 1.674l41.15-.045h.232a2.093 2.093 0 0 0 .375-.024.574.574 0 0 0 .082 0l.21-.038.162-.039c.058-.012.116-.028.173-.047.05-.015.097-.033.143-.054.07-.02.14-.044.208-.071.07-.027.125-.057.192-.086.094-.045.192-.087.28-.134.088-.048.18-.098.268-.155l.186-.128c.088-.062.174-.13.259-.202.133-.109.258-.226.375-.351a4.072 4.072 0 0 0 1.13-2.817l-.085-77.682c0-.996-.37-1.958-1.04-2.71h.004zm-1.146 80.388c0 1.072-.888 1.942-1.986 1.946l-41.15.044c-.139 0-.276-.014-.412-.038a1.86 1.86 0 0 1-.365-.12 2.65 2.65 0 0 1-.208-.104 1.931 1.931 0 0 1-.996-1.68L2.414 4.26c0-1.074.889-1.946 1.99-1.951l41.15-.045c.067-.004.136-.004.204 0 .046.003.092.01.137.021l.1.02a1.695 1.695 0 0 1 .33.104c.118.049.232.108.338.18.108.07.21.15.304.237.046.045.089.093.131.14.041.048.079.099.113.152.027.037.051.076.073.116a.94.94 0 0 1 .049.086 1.89 1.89 0 0 1 .22.886l.063 77.688zm-44.13 1.728a1.931 1.931 0 0 1-.996-1.68l-.021-18.035-1.134.119v4.205l-.338-.015c.122.324.24.646.338.973v.836c-.015.035-.033.08-.052.119a14.96 14.96 0 0 1-.304.65c-.241.521-.503 1.078-.783 1.649V79.914a3.25 3.25 0 0 1 .146 1.124v.11c0 .036 0 .095-.015.143l-.025.166c0 .08-.027.155-.045.23a2.458 2.458 0 0 1-.07.246v.298c.221-.044.433-.127.624-.244a3.65 3.65 0 0 0 .116-.292.31.31 0 0 1 .052-.018.03.03 0 0 1 0-.015h.045l.305-.023v.577c.005.084.016.167.034.25 0 .07.027.142.045.21.019.07.034.123.052.182.012.046.028.09.049.134 0 .027.021.056.033.083l.037.083c.032.077.069.151.11.224v.014c.036.063.076.128.118.19a2.006 2.006 0 0 0 .14.2c.037.05.077.098.12.143.039.047.082.092.124.134l.588-.06c.005.002.01.002.016 0 .304-.086.575-.178.85-.27-.028-.04-.098-.075-.162-.11h.003zm0 0a1.931 1.931 0 0 1-.996-1.68l-.021-18.035-1.134.119v4.205l-.338-.015c.122.324.24.646.338.973v.836c-.015.035-.033.08-.052.119a14.96 14.96 0 0 1-.304.65c-.241.521-.503 1.078-.783 1.649V79.914a3.25 3.25 0 0 1 .146 1.124v.11c0 .036 0 .095-.015.143l-.025.166c0 .08-.027.155-.045.23a2.458 2.458 0 0 1-.07.246v.298c.221-.044.433-.127.624-.244a3.65 3.65 0 0 0 .116-.292.285.285 0 0 1 .052-.018.03.03 0 0 1 0-.015h.045l.305-.023v.577c.005.084.016.167.034.25 0 .07.027.142.045.21.019.07.034.123.052.182.012.046.028.09.049.134 0 .027.021.056.033.083l.037.083c.032.077.069.151.11.224v.014c.036.063.076.128.118.19a2.006 2.006 0 0 0 .14.2c.037.05.077.098.12.143.039.047.082.092.124.134l.588-.06c.005.002.01.002.016 0 .304-.086.575-.178.85-.27-.028-.04-.098-.075-.162-.11h.003z"/>
            <path fill="#FFF" d="M34.431 19.706L15.565 45.284l.013 11.567L34.44 30.196zM34.428 37.44L15.565 63.016l.013 11.569L34.44 47.929z" opacity=".45" style="mix-blend-mode:overlay"/>
        </g>
    </g>
</svg>
