<svg xmlns="http://www.w3.org/2000/svg" width="73" height="22"><path d="M11.86 21.858L18.21.265h-6.848S9.193 9.54 8.914 11.288h-.062C8.606 9.54 6.684.265 6.684.265H.054l5.36 21.593h6.445zm8.81 0h11.743v-5.096h-5.424V13.47h4.097v-5.1h-4.097V5.363h5.424V.265H20.669zm32.892 0L47.926 10.69 52.975.265h-6.661l-3.47 7.66h-.094v.058l.06-.058h-.03.03V.265h-6.32v21.593h6.32v-8.375h.063-.03l3.935 8.375zm19.118 0L67.723.265h-7.715L54.4 21.858h6.506l.527-2.777h4.246l.462 2.777h6.538zm-10.41-8.126l.866-4.244c.249-1.347.404-2.722.59-4.067h.063c.153 1.345.279 2.72.464 4.067l.68 4.244H62.27z" fill="#323C48" opacity=".8"/></svg>