<svg xmlns="http://www.w3.org/2000/svg" width="52" height="64"><path fill="#323C48" d="M13.5 19.733c-.012.168-.03.291-.03.414v6.498a2.47 2.47 0 0 1 0 .276c-.021.2-.135.248-.299.128a1.432 1.432 0 0 1-.16-.151l-5.09-5.08c-.525-.526-1.058-1.044-1.574-1.58-.098-.102-.134-.263-.196-.4a1.743 1.743 0 0 1-.074-.198.415.415 0 0 1-.046-.199c.17-.595.518-1.065.964-1.498 1.472-1.432 2.915-2.898 4.369-4.35.545-.544 1.087-1.092 1.639-1.63a1.47 1.47 0 0 1 .33-.186c.045.132.128.262.13.396.012.77.007 1.541.007 2.312 0 1.377.018 2.754-.013 4.13a.854.854 0 0 0 .38.75c.504.394 1.02.77 1.532 1.157.618.461 1.235.926 1.86 1.38.448.33.914.629 1.36.958.3.22.572.48.87.704.441.33.894.63 1.33.96.436.33.853.69 1.288 1.023.18.138.387.238.576.366.17.11.33.243.492.367l1.4 1.054.978.732c.275-.198.557-.396.834-.601 2.137-1.58 4.274-3.161 6.41-4.743 1.606-1.189 3.207-2.384 4.817-3.568a.558.558 0 0 0 .245-.51c-.005-2.166-.005-4.332 0-6.498.006-.12.019-.239.038-.357l.078-.027c.196.185.396.364.587.55 1.722 1.712 3.442 3.425 5.162 5.138l.991.991c.639.661.641 1.444-.007 2.093-2.184 2.18-4.368 4.355-6.552 6.528-.062.06-.131.11-.196.17l-.084-.026V19.9a3.03 3.03 0 0 0-.277.153c-1.62 1.198-3.238 2.41-4.868 3.602a.639.639 0 0 0-.285.577c.007 2.689 0 5.378.008 8.067a.922.922 0 0 1-.286.728c-1.726 1.7-3.435 3.414-5.16 5.114a7.14 7.14 0 0 1-.953.771c-.141.097-.354.199-.506-.043a.132.132 0 0 0-.123-.027c-.29.125-.475-.073-.64-.237-1.118-1.101-2.223-2.213-3.334-3.322-.726-.725-1.46-1.444-2.17-2.185-.11-.11-.148-.33-.149-.502-.009-2.423-.007-4.846-.007-7.269 0-.358-.022-.717.006-1.073.027-.355-.16-.528-.418-.702-.319-.22-.618-.462-.932-.688-.314-.225-.661-.458-.992-.698-.288-.212-.566-.44-.849-.66-.33-.255-.653-.51-.981-.763a41.568 41.568 0 0 0-.991-.745c-.11-.085-.25-.152-.439-.265zm23.503-8.886l-11.278 8.37c-.44-.307-.834-.577-1.22-.866-.423-.316-.83-.652-1.248-.973-.292-.22-.593-.434-.888-.654-.33-.242-.645-.49-.972-.73-.18-.133-.373-.245-.55-.378-.178-.132-.355-.283-.531-.425-.135-.11-.265-.22-.405-.319-.322-.227-.66-.44-.972-.67-.312-.23-.597-.477-.898-.712-.14-.11-.29-.21-.435-.319-.233-.176-.461-.359-.7-.53-.3-.22-.611-.412-.91-.63-.185-.134-.351-.292-.532-.433a7.394 7.394 0 0 0-.415-.293c-.194-.131-.39-.26-.587-.385-.164-.103-.214-.197-.049-.36a495.42 495.42 0 0 0 3.42-3.386c.975-.969 1.948-1.94 2.919-2.913 1.252-1.25 2.483-2.521 3.772-3.732.302-.284.785-.435 1.211-.504.233-.039.566.163.764.351 1.084 1.04 2.142 2.108 3.207 3.169 1.493 1.487 2.986 2.976 4.478 4.465.923.926 1.84 1.866 2.82 2.857zm-35.58 36.45v6.679c0 .456 0 .457-.46.457-.212 0-.423-.012-.634 0-.24.015-.33-.086-.322-.32.007-.698 0-1.395 0-2.093v-6.94c0-.43 0-.434.424-.435.903 0 .89.007 1.395.749 1.118 1.643 2.251 3.276 3.378 4.915.451.657.902 1.314 1.351 1.972.06.088.128.171.22.297l.724-1.036a3491.73 3491.73 0 0 0 3.518-5.049c.377-.542.755-1.081 1.122-1.63a.43.43 0 0 1 .407-.22c.265.009.531.005.798 0 .188 0 .268.08.257.266-.008.12 0 .24 0 .358v8.782c0 .38 0 .384-.384.386-.256 0-.514-.009-.77 0-.214.009-.288-.076-.287-.29.008-1.166 0-2.331 0-3.498V47.18a1.78 1.78 0 0 0-.167.18l-4.716 6.803c-.27.389-.771.402-1.04.015a7673.217 7673.217 0 0 1-4.216-6.167c-.169-.247-.34-.492-.511-.738l-.087.024zM48.2 53.239h2.477c.319 0 .367.052.372.367 0 .174-.012.349 0 .523.022.27-.11.362-.358.36-1.742-.016-3.486 0-5.227-.054-1.315-.044-2.376-1.053-2.597-2.363-.151-.893-.185-1.788.123-2.657a2.79 2.79 0 0 1 1.844-1.789c.26-.088.53-.135.804-.14 1.026-.008 2.065-.087 3.075.047 1.154.152 1.97.94 2.257 2.092.12.488.087 1.016.117 1.526.013.188-.095.258-.274.257l-5.09-.03c-.422 0-.844 0-1.266-.006-.176 0-.246.076-.239.251.037.853.668 1.57 1.504 1.607.412.018.825.009 1.238.01h1.237l.003-.001zm-1.256-2.827c.796 0 1.594-.006 2.39 0 .22 0 .285-.086.28-.294-.018-.661-.596-1.343-1.322-1.393a18.262 18.262 0 0 0-2.576.006 1.556 1.556 0 0 0-1.422 1.322c-.055.316-.023.359.29.36l2.36-.001zm-26.979.947c-1.027 0-2.055.006-3.083 0-.254 0-.337.081-.33.33.039.93.754 1.592 1.786 1.6 1.513.01 3.026 0 4.54 0a.688.688 0 0 1 .272.011c.08.038.189.134.189.203-.012 1.143.2.925-.836.934-1.45.013-2.899.01-4.348 0-1.261-.01-2.203-.55-2.736-1.721a1.851 1.851 0 0 1-.183-.572c-.088-.902-.182-1.81.1-2.697.34-1.082 1.45-1.92 2.584-1.942a81.555 81.555 0 0 1 2.697 0c1.465.014 2.625 1.233 2.735 2.43.032.355.07.709.083 1.065.012.323-.038.365-.364.365h-3.109l.003-.006zm-.678-.938h1.211c.413 0 .825-.01 1.238 0 .227.007.287-.087.266-.297-.08-.77-.69-1.415-1.453-1.448a28.851 28.851 0 0 0-2.391 0c-.76.046-1.397.59-1.562 1.332-.071.33-.015.407.301.407h2.39v.006zm22.593-2.815c-.762.942-1.236 2.093-2.244 2.9.64.22.857.789 1.14 1.308.394.723.784 1.449 1.178 2.173.238.44.22.463-.262.464-.23 0-.46-.017-.687 0-.289.029-.453-.089-.585-.341-.402-.771-.832-1.529-1.235-2.3-.266-.51-.66-.792-1.246-.797a352.686 352.686 0 0 1-3.052-.034c-.22 0-.26.1-.258.287 0 .945-.007 1.89.006 2.835 0 .27-.093.36-.352.345a7.5 7.5 0 0 0-.771 0c-.22.008-.317-.084-.312-.309.01-.385 0-.77 0-1.155v-7.899c0-.422.018-.44.43-.44.22 0 .44.01.66 0 .264-.017.35.092.348.354-.01 1.477-.006 2.954-.006 4.431 0 .39 0 .391.401.391.899 0 1.798-.016 2.697 0 .694.015 1.218-.22 1.584-.833.269-.447.574-.873.881-1.294a.529.529 0 0 1 .348-.196c.417-.024.838-.009 1.257-.009l.08.12zM25.523 57.75H.473a.91.91 0 0 1-.299-.01.28.28 0 0 1-.174-.183.33.33 0 0 1 .165-.228.722.722 0 0 1 .299-.015l29.59-.016c6.83-.007 13.655-.021 20.48-.042h.247c.204-.013.306.07.31.285.003.214-.12.258-.3.256-.688-.01-1.375-.027-2.064-.027H25.522v-.02zm.97-9.588v3.055c0 .77.29 1.388.98 1.782.39.206.83.305 1.271.287h3.194c.393 0 .42.03.42.424 0 .824.036.737-.747.737-1.129 0-2.258.015-3.385-.009-1.128-.024-2.056-.5-2.683-1.468a2.738 2.738 0 0 1-.441-1.507c.004-2.155.004-4.311 0-6.468 0-.259.077-.372.345-.353.22.015.44 0 .66 0 .378 0 .392.012.392.382v3.138h-.006zm-.802-27.628l-1.093-.834c-.207-.158-.409-.321-.62-.477-.288-.212-.583-.415-.87-.627-.205-.152-.4-.318-.602-.474-.133-.103-.265-.207-.403-.304-.303-.212-.613-.415-.913-.634-.3-.22-.597-.46-.898-.689-.3-.228-.624-.47-.935-.707-.206-.156-.408-.317-.612-.475-.153-.12-.302-.246-.458-.36-.487-.36-.975-.717-1.465-1.072-.44-.32-.892-.627-1.328-.953-.312-.233-.605-.493-.911-.736-.272-.214-.55-.413-.822-.634-.06-.05-.068-.163-.1-.247.102-.018.231-.087.302-.048.215.129.422.27.62.425.446.32.897.638 1.336.967.324.243.627.514.95.758.282.211.582.4.872.602.162.11.322.227.478.348.415.323.821.661 1.242.974.304.228.631.423.936.648.305.226.596.478.899.712.183.14.379.264.564.402.185.138.36.284.545.422.185.137.374.26.557.397.183.137.36.287.544.424.291.22.585.424.881.637.312.22.642.43.93.684.156.138.245.133.394.02.835-.627 1.672-1.251 2.512-1.872l4.589-3.41c.954-.712 1.902-1.432 2.855-2.148.47-.351.946-.69 1.419-1.038.304-.22.389.093.54.22.189.165.036.275-.09.369-.934.694-1.87 1.387-2.807 2.079l-4.465 3.304a2813.11 2813.11 0 0 1-4.405 3.245 1.53 1.53 0 0 1-.168.102zM23.01 61.54c.061.036.093.054.123.075.22.154.359.356.3.628-.062.294-.236.551-.54.6-.37.052-.743.072-1.117.059a.293.293 0 0 1-.175-.22 56.995 56.995 0 0 1 0-2.17.308.308 0 0 1 .204-.22c.292-.018.585-.01.875.025a.69.69 0 0 1 .612.481c.1.287.004.521-.282.742zm-.594.213c-.46 0-.462 0-.458.475a.797.797 0 0 0 .01.22.203.203 0 0 0 .11.13 3.79 3.79 0 0 0 .822-.136c.087-.03.157-.265.14-.395-.012-.099-.16-.207-.27-.26a1.04 1.04 0 0 0-.35-.034h-.004zm-.059-.33c.417-.032.566-.121.592-.37.02-.19-.064-.353-.236-.38a4.304 4.304 0 0 0-.718 0 .029.029 0 0 0-.013.022c-.018.206-.012.413.017.618.02.061.24.075.364.111l-.006-.001zm16.836.792v.055c0 .643-.065.708-.726.717-.58.006-1.09-.144-1.332-.726-.352-.846.011-1.878 1.063-2.019.22-.027.443-.02.661.02.075.013.128.158.19.242a.861.861 0 0 1-.245.098c-.2.015-.404-.023-.6.008-.88.138-.97 1.17-.636 1.669.189.28.824.477 1.121.294.102-.062.11-.316.11-.484 0-.065-.11-.16-.194-.193-.135-.053-.386.069-.37-.197.017-.265.255-.153.398-.155.616-.01.555-.07.56.67zm-6.71-1.067c.308-.193.647-.276.984.05a.247.247 0 0 0 .228-.032.72.72 0 0 1 .796-.12c.293.125.346.406.348.693 0 .32.012.642-.009.961 0 .075-.117.144-.178.214-.05-.071-.14-.142-.144-.22-.02-.32 0-.642-.024-.962-.023-.319-.126-.428-.386-.42a.44.44 0 0 0-.463.447c-.013.302.008.606-.015.906-.007.086-.11.163-.176.245-.051-.08-.141-.159-.146-.241-.018-.292 0-.586-.01-.882-.006-.316-.132-.47-.374-.475-.297 0-.488.184-.495.497 0 .285.012.57-.01.852-.007.087-.11.166-.175.25-.058-.084-.164-.166-.167-.253a18.211 18.211 0 0 1 0-1.322c.014-.105.04-.208.078-.307l.337.119zm-24.22 1.767c-.184 0-.367-.007-.551 0-.22.012-.29-.091-.288-.296.005-.678.005-1.356 0-2.034 0-.22.083-.315.31-.307.331.012.662-.012.992.01.11.008.22.11.323.167a1.183 1.183 0 0 1-.33.147 4.972 4.972 0 0 1-.687 0c-.184-.006-.259.059-.262.254-.009.537-.017.537.528.537h.301c.13.009.309-.04.299.179-.01.218-.184.165-.314.17a7.063 7.063 0 0 1-.55 0c-.185-.009-.267.056-.264.253.012.696-.065.583.577.593.193 0 .387-.01.576.011.062.007.11.104.169.16-.055.047-.11.13-.166.135-.22.017-.44.007-.66.007l-.004.014zm18.883.017c-.31 0-.55.044-.77-.015a.871.871 0 0 1-.434-.342c-.244-.356-.17-1.023.12-1.34a.77.77 0 0 1 .727-.233c.18.029.35.21.542.029.046.056.133.11.133.167.01.817.01 1.633 0 2.449 0 .056-.11.11-.164.166-.051-.063-.144-.123-.15-.19-.015-.242-.004-.487-.004-.691zm.036-.901l-.046-.013v-.247c.007-.228-.076-.397-.315-.44-.239-.045-.44.006-.562.233a.87.87 0 0 0 .02.888c.149.253.55.324.734.104.11-.133.118-.348.17-.524v-.001zm-9.238-.898c.212-.06.428-.103.646-.13.282-.013.497.147.523.423.032.44.041.881.028 1.322 0 .055-.11.11-.17.164-.048-.064-.136-.126-.139-.192-.015-.32-.006-.642-.01-.962-.004-.32-.12-.454-.353-.457a.5.5 0 0 0-.518.461c-.013.293 0 .587-.009.881 0 .13 0 .294-.185.258-.064-.012-.14-.169-.14-.261a112.8 112.8 0 0 1-.006-2.284c0-.121-.032-.302.166-.264.071.015.153.179.162.281.023.251.005.511.005.76zm12.387.985c.057.366.23.519.616.533.127 0 .253-.035.38-.034a.568.568 0 0 1 .185.07.485.485 0 0 1-.096.2c-.418.278-1.218.028-1.379-.448a1.23 1.23 0 0 1 .078-1.036.828.828 0 0 1 .967-.39c.286.082.529.483.52.834 0 .173-.1.22-.249.22-.32 0-.64.009-.959.017a.203.203 0 0 0-.063.034zm.044-.358h.669c.176 0 .194-.1.128-.236a.365.365 0 0 0-.434-.198c-.205.036-.348.143-.364.434h.001zm-5.534 1.22c-.486 0-.827-.205-.946-.536-.16-.45-.052-.98.254-1.248a.803.803 0 0 1 .897-.123.837.837 0 0 1 .398.79c-.01.163-.1.198-.235.196h-.771c-.258 0-.309.116-.177.33.172.278.451.27.732.27.121 0 .32-.173.342.08.007.066-.22.162-.341.228a.344.344 0 0 1-.153.013zm.205-1.222c.035-.28-.096-.409-.303-.45-.227-.047-.391.074-.486.272-.001.067.03.13.084.169.233.016.467.009.705.009zm-10.05.01c.063-.268-.09-.408-.328-.452-.165-.03-.349.012-.515.01a.757.757 0 0 1-.194-.055c.028-.063.051-.176.084-.178.3-.025.613-.084.898-.025.284.06.442.304.438.608v1.016c0 .138-.06.276-.212.195-.182-.097-.308-.017-.455.033-.37.124-.697.012-.86-.29a.557.557 0 0 1 .006-.562.62.62 0 0 1 .503-.297c.198-.018.4-.003.636-.003zm.025.518c-.007-.186-.126-.245-.465-.238-.232.006-.403.07-.395.325.007.213.148.309.357.31.267.001.51-.2.503-.397zm26.272-.52v.44c-.009.46-.279.752-.718.779-.488.03-.83-.22-.87-.679a7.69 7.69 0 0 1 0-1.071c0-.078.121-.148.186-.22.063.072.173.142.178.22.021.319.007.642.012.962.006.303.157.457.43.456.252 0 .39-.155.394-.454.005-.298 0-.623 0-.936 0-.145.049-.28.214-.24.074.019.15.157.166.25.016.164.019.328.008.492zm-11.686.015c-.047.275-.058.564-.15.823-.1.283-.465.42-.813.37-.348-.048-.587-.24-.621-.562a9.186 9.186 0 0 1-.032-1.177c0-.073.125-.142.193-.213.052.08.147.159.152.242.018.31 0 .623.01.934.012.312.155.457.428.462.273.004.41-.152.416-.462.007-.31-.012-.605.013-.906.008-.096.125-.182.192-.271a.83.83 0 0 1 .162.26c.016.165.019.33.008.494l.042.006zm-18.741-.603c.154-.073.315-.13.481-.168.415-.054.68.156.706.572.02.375.02.75 0 1.126 0 .068-.11.132-.165.197-.054-.068-.152-.134-.155-.205-.018-.33-.006-.66-.012-.99 0-.291-.12-.418-.355-.42-.253 0-.511.205-.519.431-.01.312 0 .624 0 .935 0 .124 0 .271-.173.237a.294.294 0 0 1-.154-.228 21.97 21.97 0 0 1 0-1.347.998.998 0 0 1 .086-.27l.26.13zM42.6 62.992c-.493 0-.707-.208-.74-.64-.015-.2-.006-.403-.005-.604 0-.176.01-.337-.215-.418-.145-.051-.11-.22.032-.317a1.08 1.08 0 0 0 .182-.227c.065-.081.12-.21.202-.23.161-.04.191.1.183.23-.01.17.075.22.233.22.128 0 .304-.04.312.17.01.208-.158.197-.294.195-.19 0-.262.08-.253.267.01.22 0 .44 0 .66 0 .22.097.315.303.356a.971.971 0 0 1 .268.152l-.208.186zm-29.09-2.963l.191.161a.786.786 0 0 1-.251.138c-.22.027-.365.12-.4.344-.033.207 0 .359.27.354.087 0 .176.104.263.16-.092.049-.184.134-.277.137-.205 0-.274.088-.268.285.009.357.01.716-.007 1.073 0 .077-.11.15-.164.22-.054-.077-.15-.152-.154-.232a15.832 15.832 0 0 1-.007-1.073c0-.158-.026-.266-.208-.292a.174.174 0 0 1-.099-.137.176.176 0 0 1 .101-.136c.22-.019.2-.169.208-.318.02-.432.294-.694.802-.684zm2.597 1.951c0 .521.265.74.793.667a.67.67 0 0 1 .248.069c-.066.071-.119.182-.2.208a.888.888 0 0 1-.964-.22c-.293-.304-.323-.696-.2-1.08a.874.874 0 0 1 1.08-.612c.094.021.167.133.25.204a.785.785 0 0 1-.27.085c-.502-.037-.734.171-.737.68zm-6.492-.016c0-.23-.012-.458.007-.686.006-.079.089-.15.137-.22.054.068.152.135.154.205.015.485.014.97 0 1.455 0 .064-.09.126-.138.19-.054-.067-.15-.13-.155-.2-.017-.25-.006-.498-.005-.744zm26.262.808a.908.908 0 0 1-.256.144c-.15.029-.21-.072-.208-.22.002-.148.077-.237.22-.203a.9.9 0 0 1 .247.161l-.003.118zm7.812 0c-.085.052-.179.156-.251.143a.33.33 0 0 1-.2-.22.159.159 0 0 1 .208-.204.87.87 0 0 1 .246.165l-.003.116zm-23.963-.128c.084-.048.171-.14.25-.13a.196.196 0 0 1-.008.388c-.079 0-.162-.09-.243-.142l.001-.116zM9.985 60.46c-.104.078-.176.165-.212.152a.254.254 0 0 1-.145-.167.2.2 0 0 1 .131-.147c.064.006.122.083.226.162z" opacity=".8"/></svg>