<svg xmlns="http://www.w3.org/2000/svg" width="80" height="73" viewBox="0 0 80 73">
    <g fill="none" fill-rule="nonzero">
        <path fill="#FFF" d="M13.143 68.104l-4.997 1.873 4.997 1.874 1.25-1.874z"/>
        <path fill="#5C9EFF" d="M3.774.649a3.123 3.123 0 1 0 0 6.246h4.372V.649H3.774z"/>
        <path fill="#2287FF" d="M3.774 6.895h4.372-1.874a3.122 3.122 0 1 1 0-6.246h1.874-4.372a3.122 3.122 0 1 0 0 6.246z"/>
        <path fill="#94C1FF" d="M.652 3.778v54.957a3.123 3.123 0 0 0 3.122 3.123h68.08V6.895H3.774A3.122 3.122 0 0 1 .652 3.778z"/>
        <path fill="#D7E9FF" d="M3.072 6.81a3.12 3.12 0 0 1-2.42-3.032v54.957a3.12 3.12 0 0 0 2.42 3.036V6.81z"/>
        <path fill="#94C1FF" d="M76.226 13.14h-4.372v54.964h4.372a3.123 3.123 0 0 0 3.123-3.123V10.018a3.123 3.123 0 0 1-3.123 3.122z"/>
        <path fill="#5C9EFF" d="M76.85 13.077v51.904a3.123 3.123 0 0 1-3.122 3.123h2.498a3.123 3.123 0 0 0 3.123-3.123V10.018c0 1.51-1.074 2.77-2.499 3.059z"/>
        <path fill="#94C1FF" d="M76.226 6.895h-4.372v6.245h4.372a3.123 3.123 0 1 0 0-6.245z"/>
        <path fill="#5C9EFF" d="M76.226 6.895h-4.372 1.874a3.123 3.123 0 1 1 0 6.245h-1.874 4.372a3.123 3.123 0 1 0 0-6.245z"/>
        <path fill="#D7E9FF" d="M71.854 13.14h2.498v54.963h-2.498zM51.867 71.851H13.143l1.25-1.874-1.25-1.873h38.724z"/>
        <path fill="#FFF" d="M51.867 68.104h4.997v3.748h-4.997z"/>
        <path fill="#D7E9FF" d="M56.864 68.104h3.748v3.748h-3.748z"/>
        <path fill="#94C1FF" d="M56.864 68.104h1.249v3.748h-1.249z"/>
        <path fill="#D7E9FF" d="M55.615 50.616V32.553L37.502 16.887 19.389 32.553v18.063h-1.25v2.499h16.24v-9.993h6.246v9.993h16.239v-2.499zM24.385 25.732l-2.498 2.16v-7.255h2.498zM37.502 16.887l-23.11 19.986v-2.498l23.11-19.987zM37.502 16.887l23.11 19.986v-2.498l-23.11-19.987z"/>
        <circle cx="37.502" cy="31.255" r="3.123" fill="#94C1FF"/>
        <path fill="#94C1FF" d="M23.136 36.876h7.495v7.495h-7.495zM44.372 36.876h7.495v7.495h-7.495z"/>
        <path fill="#FFF" d="M18.14 50.617h1.249v2.498H18.14z" opacity=".3"/>
        <g fill="#116FFF">
            <path d="M36.29 49.99a.63.63 0 0 1-.631-.624.62.62 0 0 1 .618-.625h.013a.624.624 0 1 1 0 1.25zM14.392 35a.623.623 0 0 1-.408-1.097l23.11-19.987a.625.625 0 0 1 .816.945L14.801 34.847a.623.623 0 0 1-.409.153z"/>
            <path d="M60.611 35a.621.621 0 0 1-.408-.153l-23.11-19.986a.625.625 0 1 1 .817-.945l23.11 19.987A.625.625 0 0 1 60.611 35zM14.392 37.498a.624.624 0 0 1-.408-1.097l23.11-19.986a.625.625 0 0 1 .816.944L14.801 37.346a.624.624 0 0 1-.409.152z"/>
            <path d="M60.611 37.498a.622.622 0 0 1-.408-.153L37.093 17.36a.625.625 0 1 1 .817-.944L61.02 36.4a.625.625 0 0 1-.409 1.097zM14.392 37.498a.624.624 0 0 1-.624-.625v-2.498a.624.624 0 1 1 1.249 0v2.498c0 .346-.28.625-.625.625z"/>
            <path d="M60.611 37.498a.624.624 0 0 1-.624-.625v-2.498a.624.624 0 1 1 1.249 0v2.498c0 .346-.28.625-.625.625zM19.389 51.24a.624.624 0 0 1-.625-.625V35.048a.624.624 0 1 1 1.25 0v15.567c0 .346-.28.625-.625.625zM55.615 51.24a.624.624 0 0 1-.625-.625V35.048a.624.624 0 1 1 1.25 0v15.567c0 .346-.28.625-.625.625zM31.88 53.738H18.14a.624.624 0 1 1 0-1.249h13.74a.624.624 0 1 1 0 1.25zM56.864 53.738H43.123a.624.624 0 1 1 0-1.249h13.74a.624.624 0 1 1 0 1.25zM34.379 53.738a.624.624 0 0 1-.625-.624V43.12a.624.624 0 1 1 1.25 0v9.994c0 .345-.28.624-.625.624z"/>
            <path d="M40.625 43.745h-6.246a.624.624 0 1 1 0-1.25h6.246a.624.624 0 1 1 0 1.25z"/>
            <path d="M40.625 53.738a.624.624 0 0 1-.625-.624V43.12a.624.624 0 1 1 1.25 0v9.994c0 .345-.28.624-.625.624zM18.14 53.738a.624.624 0 0 1-.625-.624v-2.499a.624.624 0 1 1 1.25 0v2.499c0 .345-.28.624-.625.624z"/>
            <path d="M20.638 51.24H18.14a.624.624 0 1 1 0-1.25h2.498a.624.624 0 1 1 0 1.25zM56.864 53.738a.624.624 0 0 1-.625-.624v-2.499a.624.624 0 1 1 1.25 0v2.499c0 .345-.28.624-.625.624z"/>
            <path d="M56.864 51.24h-2.499a.624.624 0 1 1 0-1.25h2.499a.624.624 0 1 1 0 1.25zM51.867 44.994h-7.495a.624.624 0 0 1-.624-.624v-7.495c0-.346.279-.625.624-.625h7.495c.345 0 .625.28.625.625v7.495c0 .345-.28.624-.625.624zm-6.87-1.25h6.246V37.5h-6.246v6.246zM30.631 44.994h-7.495a.624.624 0 0 1-.624-.624v-7.495c0-.346.28-.625.624-.625h7.495c.346 0 .625.28.625.625v7.495c0 .345-.28.624-.625.624zm-6.87-1.25h6.246V37.5H23.76v6.246z"/>
            <path d="M26.884 43.745a.624.624 0 0 1-.625-.625v-4.996a.624.624 0 1 1 1.25 0v4.996c0 .346-.28.625-.625.625zM48.12 43.745a.624.624 0 0 1-.625-.625v-4.996a.624.624 0 1 1 1.25 0v4.996c0 .346-.28.625-.625.625z"/>
            <path d="M50.618 41.247H45.62a.624.624 0 1 1 0-1.25h4.997a.624.624 0 1 1 0 1.25zM29.382 41.247h-4.997a.624.624 0 1 1 0-1.25h4.997a.624.624 0 1 1 0 1.25zM37.502 35a3.752 3.752 0 0 1-3.748-3.747 3.752 3.752 0 0 1 3.748-3.747 3.751 3.751 0 0 1 3.747 3.747 3.751 3.751 0 0 1-3.747 3.748zm0-6.245a2.501 2.501 0 0 0-2.499 2.498 2.501 2.501 0 0 0 2.499 2.499A2.501 2.501 0 0 0 40 31.253a2.501 2.501 0 0 0-2.498-2.498z"/>
            <path d="M37.502 33.752a.624.624 0 0 1-.625-.625V29.38a.624.624 0 1 1 1.25 0v3.747c0 .345-.28.625-.625.625z"/>
            <path d="M39.375 31.878h-3.747a.624.624 0 1 1 0-1.25h3.747a.624.624 0 1 1 0 1.25zM24.385 26.357a.624.624 0 0 1-.624-.625v-5.097a.624.624 0 1 1 1.249 0v5.097c0 .345-.28.625-.625.625zM21.887 28.517a.624.624 0 0 1-.625-.625v-7.257a.624.624 0 1 1 1.25 0v7.257c0 .346-.28.625-.625.625z"/>
            <path d="M25.01 21.26h-3.748a.624.624 0 1 1 0-1.25h3.748a.624.624 0 1 1 0 1.25z"/>
            <g>
                <path d="M76.226 13.765a.624.624 0 1 1 0-1.25 2.5 2.5 0 0 0 2.498-2.497 2.5 2.5 0 0 0-2.498-2.499.624.624 0 1 1 0-1.249 3.751 3.751 0 0 1 3.747 3.748 3.751 3.751 0 0 1-3.747 3.747z"/>
                <path d="M79.349 65.605a.624.624 0 0 1-.625-.624V10.018a.624.624 0 1 1 1.25 0V64.98c0 .345-.28.624-.625.624zM76.226 13.765h-4.372a.624.624 0 1 1 0-1.25h4.372a.624.624 0 1 1 0 1.25zM76.226 7.52H3.774a.624.624 0 1 1 0-1.25h72.452a.624.624 0 1 1 0 1.25zM76.226 68.728h-4.372a.624.624 0 1 1 0-1.25h4.372a.624.624 0 1 1 0 1.25zM69.355 62.482H3.775a.624.624 0 1 1 0-1.249h65.58a.624.624 0 1 1 0 1.25z"/>
                <path d="M76.226 68.728a.624.624 0 1 1 0-1.25 2.5 2.5 0 0 0 2.498-2.497.624.624 0 1 1 1.25 0 3.752 3.752 0 0 1-3.748 3.747zM3.774 62.482a3.751 3.751 0 0 1-3.747-3.747.624.624 0 1 1 1.25 0 2.501 2.501 0 0 0 2.497 2.498.624.624 0 1 1 0 1.25zM71.854 68.728a.624.624 0 0 1-.625-.624V13.14a.624.624 0 1 1 1.25 0v54.964c0 .345-.28.624-.625.624zM3.774 7.52A3.752 3.752 0 0 1 .027 3.771 3.752 3.752 0 0 1 3.774.024a.624.624 0 1 1 0 1.25 2.501 2.501 0 0 0-2.498 2.498A2.501 2.501 0 0 0 3.774 6.27a.624.624 0 1 1 0 1.25z"/>
                <path d="M8.146 1.273H3.774a.624.624 0 1 1 0-1.249h4.372a.624.624 0 1 1 0 1.25z"/>
                <path d="M8.146 5.02a.624.624 0 0 1-.624-.624V.65a.624.624 0 1 1 1.25 0v3.747c-.001.346-.28.625-.626.625zM.651 59.36a.624.624 0 0 1-.624-.625V3.772a.624.624 0 1 1 1.25 0v54.963c0 .345-.28.624-.626.624z"/>
            </g>
            <path d="M54.402 70.602a.629.629 0 0 1-.63-.624c0-.346.274-.625.618-.625h.012a.624.624 0 1 1 0 1.249z"/>
            <path d="M60.611 72.476H13.142a.613.613 0 0 1-.22-.04l-4.996-1.874a.624.624 0 0 1 0-1.169l4.997-1.874a.613.613 0 0 1 .22-.04H60.61c.345 0 .625.28.625.625v3.747c0 .345-.28.625-.625.625zm-47.355-1.25h46.73v-2.498h-46.73l-3.332 1.25 3.332 1.249z"/>
            <path d="M14.392 70.602a.623.623 0 0 1-.52-.278l-1.25-1.874a.624.624 0 1 1 1.04-.693l1.25 1.874a.624.624 0 0 1-.52.97z"/>
            <path d="M13.142 72.476a.626.626 0 0 1-.52-.971l1.25-1.874a.624.624 0 1 1 1.04.693l-1.25 1.874a.624.624 0 0 1-.52.278zM56.864 72.476a.624.624 0 0 1-.625-.625v-3.747a.624.624 0 1 1 1.25 0v3.747c0 .345-.28.625-.625.625zM51.867 72.476a.624.624 0 0 1-.625-.625v-3.747a.624.624 0 1 1 1.25 0v3.747c0 .345-.28.625-.625.625zM33.13 15.014H6.897a.624.624 0 1 1 0-1.249H33.13a.624.624 0 1 1 0 1.25zM15.641 53.738H6.897a.624.624 0 1 1 0-1.249h8.744a.624.624 0 1 1 0 1.25zM8.146 51.24a.624.624 0 0 1-.624-.625V16.888a.624.624 0 1 1 1.25 0v33.727c-.001.346-.28.625-.626.625zM65.608 37.5h-2.499a.624.624 0 1 1 0-1.25h2.499a.624.624 0 1 1 0 1.25zM65.608 15.013H41.875a.624.624 0 1 1 0-1.25h23.733a.624.624 0 1 1 0 1.25zM64.359 35a.624.624 0 0 1-.625-.624V16.888a.624.624 0 1 1 1.25 0v17.488c0 .345-.28.625-.625.625zM65.608 53.738h-6.246a.624.624 0 1 1 0-1.249h6.246a.624.624 0 1 1 0 1.25zM64.359 51.24a.624.624 0 0 1-.625-.625V39.373a.624.624 0 1 1 1.25 0v11.242c0 .346-.28.625-.625.625z"/>
        </g>
    </g>
</svg>
