<svg xmlns="http://www.w3.org/2000/svg" width="69" height="80" viewBox="0 0 69 80">
    <g fill="none" fill-rule="nonzero">
        <path fill="#FFF" d="M23.128 79.365l-22.495-2.5V.636l22.495 2.5zM68.117 79.365l-22.495-2.5V.636l22.495 2.5z"/>
        <path fill="#94C1FF" d="M23.128 79.365l22.494-2.5V.636l-22.494 2.5z"/>
        <g fill="#116FFF">
            <path d="M23.128 79.99a.678.678 0 0 1-.07-.003l-22.494-2.5a.625.625 0 0 1-.556-.621V.635A.624.624 0 0 1 .702.014l22.495 2.499a.625.625 0 0 1 .556.621v76.232a.626.626 0 0 1-.625.624zm-21.87-3.683l21.245 2.36V3.694L1.258 1.333v74.974z"/>
            <path d="M23.128 79.99a.626.626 0 0 1-.625-.625V3.135c0-.32.24-.587.556-.622l22.495-2.5a.626.626 0 0 1 .693.622v76.23c0 .32-.24.587-.557.622l-22.493 2.5a.631.631 0 0 1-.07.003zm.625-76.296v74.973l21.245-2.36V1.333l-21.245 2.36z"/>
            <path d="M68.117 79.99a.653.653 0 0 1-.069-.003l-22.494-2.5a.625.625 0 0 1-.557-.62V.634a.626.626 0 0 1 .693-.621l22.495 2.499a.625.625 0 0 1 .556.621v76.232a.628.628 0 0 1-.207.466.628.628 0 0 1-.417.158zm-21.87-3.683l21.245 2.36V3.694L46.247 1.333v74.974z"/>
        </g>
    </g>
</svg>
