<svg xmlns="http://www.w3.org/2000/svg" width="52" height="88" viewBox="0 0 52 88">
    <g fill="none" fill-rule="nonzero">
        <path fill="#5C9EFF" d="M32.939 13.083h-13.74l2.747-2.748h8.245z"/>
        <path fill="#D7E9FF" d="M8.205 32.32h5.496v54.963H8.205zM38.435 32.32h5.496v54.963h-5.496z"/>
        <path fill="#94C1FF" d="M13.702 24.076h4.122v63.208h-4.122zM34.313 24.076h4.122v63.208h-4.122z"/>
        <path fill="#FFF" d="M17.824 13.083h16.489v74.2H17.824z"/>
        <path fill="#D7E9FF" d="M13.702 24.076h1.374v63.208h-1.374z"/>
        <path fill="#5C9EFF" d="M16.45 24.076h1.374v63.208H16.45zM34.313 24.076h1.374v63.208h-1.374z"/>
        <path fill="#94C1FF" d="M38.435 32.32h1.374v54.963h-1.374zM12.328 32.32h1.374v54.963h-1.374z"/>
        <path fill="#FFF" d="M8.205 32.32h1.374v54.963H8.205z"/>
        <path fill="#94C1FF" d="M42.558 32.32h1.374v54.963h-1.374z"/>
        <path fill="#5C9EFF" d="M37.061 24.076h1.374v63.208h-1.374z"/>
        <g fill="#116FFF">
            <path d="M34.313 87.97a.687.687 0 0 1-.687-.687V13.77H18.51v73.513a.687.687 0 1 1-1.374 0v-74.2c0-.38.307-.687.687-.687h16.489c.38 0 .687.307.687.687v74.2c0 .38-.307.687-.687.687z"/>
            <path d="M20.572 82.474a.687.687 0 0 1-.687-.687V24.076a.687.687 0 1 1 1.374 0v57.71c0 .38-.307.688-.687.688zM23.32 82.474a.687.687 0 0 1-.687-.687V24.076a.687.687 0 1 1 1.374 0v57.71c0 .38-.307.688-.687.688zM26.069 82.474a.687.687 0 0 1-.688-.687V24.076a.687.687 0 1 1 1.375 0v57.71c0 .38-.308.688-.687.688zM20.572 22.015a.687.687 0 0 1-.687-.687V15.83a.687.687 0 1 1 1.374 0v5.497c0 .38-.307.687-.687.687zM23.32 22.015a.687.687 0 0 1-.687-.687V15.83a.687.687 0 1 1 1.374 0v5.497c0 .38-.307.687-.687.687zM26.069 22.015a.687.687 0 0 1-.688-.687V15.83a.687.687 0 1 1 1.375 0v5.497c0 .38-.308.687-.687.687zM28.817 82.474a.687.687 0 0 1-.688-.687V24.076a.687.687 0 1 1 1.375 0v57.71c0 .38-.308.688-.687.688zM28.817 22.015a.687.687 0 0 1-.688-.687V15.83a.687.687 0 1 1 1.375 0v5.497c0 .38-.308.687-.687.687zM31.565 82.474a.687.687 0 0 1-.687-.687V24.076a.687.687 0 1 1 1.374 0v57.71c0 .38-.307.688-.687.688zM31.565 22.015a.687.687 0 0 1-.687-.687V15.83a.687.687 0 1 1 1.374 0v5.497c0 .38-.307.687-.687.687zM38.435 24.763h-1.374a.687.687 0 1 1 0-1.374h1.374a.687.687 0 1 1 0 1.374z"/>
            <path d="M38.435 87.97a.687.687 0 0 1-.687-.687V24.076a.687.687 0 1 1 1.374 0v63.207c0 .38-.307.687-.687.687zM43.931 33.007h-2.748a.687.687 0 1 1 0-1.374h2.748a.687.687 0 1 1 0 1.374z"/>
            <path d="M43.931 87.97a.687.687 0 0 1-.686-.687V32.32a.687.687 0 1 1 1.374 0v54.963c0 .38-.308.687-.688.687zM38.435 28.885h-1.374a.687.687 0 1 1 0-1.374h1.374a.687.687 0 1 1 0 1.374zM38.435 33.007h-1.374a.687.687 0 1 1 0-1.374h1.374a.687.687 0 1 1 0 1.374zM38.435 37.13h-1.374a.687.687 0 1 1 0-1.375h1.374a.687.687 0 1 1 0 1.374zM38.435 41.252h-1.374a.687.687 0 1 1 0-1.374h1.374a.687.687 0 1 1 0 1.374zM38.435 45.374h-1.374a.687.687 0 1 1 0-1.374h1.374a.687.687 0 1 1 0 1.374zM38.435 49.496h-1.374a.687.687 0 1 1 0-1.374h1.374a.687.687 0 1 1 0 1.374zM38.435 53.618h-1.374a.687.687 0 1 1 0-1.374h1.374a.687.687 0 1 1 0 1.374zM38.435 57.74h-1.374a.687.687 0 1 1 0-1.373h1.374a.687.687 0 1 1 0 1.374zM38.435 61.863h-1.374a.687.687 0 1 1 0-1.374h1.374a.687.687 0 1 1 0 1.374zM38.435 65.985h-1.374a.687.687 0 1 1 0-1.374h1.374a.687.687 0 1 1 0 1.374zM38.435 70.107h-1.374a.687.687 0 1 1 0-1.374h1.374a.687.687 0 1 1 0 1.374zM38.435 74.23h-1.374a.687.687 0 1 1 0-1.374h1.374a.687.687 0 1 1 0 1.374zM38.435 78.352h-1.374a.687.687 0 1 1 0-1.374h1.374a.687.687 0 1 1 0 1.374zM38.435 82.474h-1.374a.687.687 0 1 1 0-1.374h1.374a.687.687 0 1 1 0 1.374zM15.076 24.763h-1.374a.687.687 0 1 1 0-1.374h1.374a.687.687 0 1 1 0 1.374z"/>
            <path d="M13.702 87.97a.687.687 0 0 1-.687-.687V24.076a.687.687 0 1 1 1.374 0v63.207c0 .38-.307.687-.687.687z"/>
            <path d="M15.076 28.885h-1.374a.687.687 0 1 1 0-1.374h1.374a.687.687 0 1 1 0 1.374zM15.076 33.007h-1.374a.687.687 0 1 1 0-1.374h1.374a.687.687 0 1 1 0 1.374zM15.076 37.13h-1.374a.687.687 0 1 1 0-1.375h1.374a.687.687 0 1 1 0 1.374zM15.076 41.252h-1.374a.687.687 0 1 1 0-1.374h1.374a.687.687 0 1 1 0 1.374zM15.076 45.374h-1.374a.687.687 0 1 1 0-1.374h1.374a.687.687 0 1 1 0 1.374zM15.076 49.496h-1.374a.687.687 0 1 1 0-1.374h1.374a.687.687 0 1 1 0 1.374zM15.076 53.618h-1.374a.687.687 0 1 1 0-1.374h1.374a.687.687 0 1 1 0 1.374zM15.076 57.74h-1.374a.687.687 0 1 1 0-1.373h1.374a.687.687 0 1 1 0 1.374zM15.076 61.863h-1.374a.687.687 0 1 1 0-1.374h1.374a.687.687 0 1 1 0 1.374zM15.076 65.985h-1.374a.687.687 0 1 1 0-1.374h1.374a.687.687 0 1 1 0 1.374zM15.076 70.107h-1.374a.687.687 0 1 1 0-1.374h1.374a.687.687 0 1 1 0 1.374zM15.076 74.23h-1.374a.687.687 0 1 1 0-1.374h1.374a.687.687 0 1 1 0 1.374zM15.076 78.352h-1.374a.687.687 0 1 1 0-1.374h1.374a.687.687 0 1 1 0 1.374zM15.076 82.474h-1.374a.687.687 0 1 1 0-1.374h1.374a.687.687 0 1 1 0 1.374zM41.183 82.474a.687.687 0 0 1-.687-.687V35.068a.687.687 0 1 1 1.374 0v46.719c0 .38-.307.687-.687.687zM10.954 33.007H8.206a.687.687 0 1 1 0-1.374h2.748a.687.687 0 1 1 0 1.374z"/>
            <path d="M8.205 87.97a.687.687 0 0 1-.687-.687V32.32a.687.687 0 1 1 1.375 0v54.963c0 .38-.308.687-.688.687zM10.954 82.474a.687.687 0 0 1-.687-.687V35.068a.687.687 0 1 1 1.374 0v46.719c0 .38-.307.687-.687.687zM26.069 11.022a.687.687 0 0 1-.688-.687V.717a.687.687 0 1 1 1.375 0v9.618c0 .38-.308.687-.687.687zM20.572 12.396a.687.687 0 0 1-.486-1.173l1.375-1.374a.687.687 0 1 1 .971.972l-1.374 1.374a.686.686 0 0 1-.486.201z"/>
            <path d="M30.19 11.022h-8.244a.687.687 0 1 1 0-1.374h8.245a.687.687 0 1 1 0 1.374z"/>
            <path d="M31.565 12.396a.685.685 0 0 1-.486-.201l-1.374-1.374a.687.687 0 1 1 .971-.972l1.375 1.374a.687.687 0 0 1-.486 1.173zM26.069 87.97a.687.687 0 0 1-.688-.687v-2.748a.687.687 0 1 1 1.375 0v2.748c0 .38-.308.687-.687.687z"/>
            <path d="M50.802 87.97H1.335a.687.687 0 1 1 0-1.374h49.467a.687.687 0 1 1 0 1.374z"/>
        </g>
    </g>
</svg>
