<svg xmlns="http://www.w3.org/2000/svg" width="80" height="76"><g fill="none"><path fill="#CCD1D9" d="M1.876 13.083c-.69 0-1.25.557-1.25 1.246 0 .688.56 1.246 1.25 1.246h9.648v-2.492H1.876z"/><path fill="#FFF" d="M11.524 13.083H1.876c-.69 0-1.25.557-1.25 1.246h10.898v-1.246z" opacity=".5"/><path fill="#D7E9FF" d="M74.374 16.82h-55.31v-4.983h55.31l5 2.492zM1.876 13.083c-.69 0-1.25.557-1.25 1.246 0 .688.56 1.246 1.25 1.246h9.648v-2.492H1.876zm13.75 0c.687 0 1.25.56 1.25 1.246 0 .685-.563 1.246-1.25 1.246s-1.25-.561-1.25-1.246c0-.685.563-1.246 1.25-1.246z"/><path fill="#94C1FF" d="M16.876 14.329c0-.685-.563-1.246-1.25-1.246s-1.25.56-1.25 1.246c0 .685.563 1.246 1.25 1.246s1.25-.561 1.25-1.246zm-1.25-4.984c2.762 0 5 2.23 5 4.984 0 2.753-2.238 4.983-5 4.983s-5-2.23-5-4.983c0-2.754 2.238-4.984 5-4.984z"/><path fill="#D7E9FF" d="M15.626 10.591a4.977 4.977 0 0 1 4.937 4.36c.026-.206.063-.41.063-.622 0-2.754-2.238-4.984-5-4.984s-5 2.23-5 4.984c0 .213.037.416.063.623a4.977 4.977 0 0 1 4.937-4.36z"/><path fill="#5C9EFF" d="M15.626 18.066a4.977 4.977 0 0 1-4.937-4.36c-.026.207-.063.41-.063.623 0 2.753 2.238 4.983 5 4.983s5-2.23 5-4.983c0-.213-.037-.416-.063-.623a4.977 4.977 0 0 1-4.937 4.36z"/><path fill="#94C1FF" d="M78.136 5.608H6.876L.626 3.116 6.876.624h71.26a1.24 1.24 0 0 1 1.238 1.234v2.504a1.24 1.24 0 0 1-1.238 1.234v.012z"/><path fill="#D7E9FF" d="M45.625 75.376H.626V21.804l78.748 53.572H45.625zm-34.999-9.967l36.249-.074-36.249-24.656v24.73z"/><path fill="#94C1FF" d="M.626 21.804v1.7l76.248 51.872h2.5z"/><path fill="#FFF" d="M.626 21.804v53.572h1.25V22.654z"/><path fill="#94C1FF" d="M46.188 46.31l-3.1-2.105-3.1-2.118-3.1-2.106-6.712-4.56 3.524-5.146 3.1 2.106 5.163 3.513 27.874 18.963 5.162 3.512 3.1 2.106-3.525 5.146-3.613-2.466-3.1-2.106-3.1-2.106-3.087-2.105-3.099-2.106-3.1-2.105-3.1-2.106-3.088-2.105z"/><path fill="#D7E9FF" d="M72.21 61.909l-3.098-2.106-3.1-2.106-3.088-2.105-3.1-2.106-3.1-2.105-3.099-2.106-3.088-2.105-3.1-2.106-3.1-2.105-3.1-2.118-3.1-2.106-6.711-4.56 2.545-3.716-.27-.184-3.525 5.146 6.712 4.56 3.1 2.106 3.1 2.118 3.1 2.105 3.1 2.106 3.087 2.105 3.1 2.106 3.1 2.105 3.1 2.106 3.086 2.105 3.1 2.106 3.1 2.106 3.613 2.466.98-1.431z"/><path fill="#94C1FF" d="M53.125 28.332a16.723 16.723 0 0 0-6.1 2.455 16.67 16.67 0 0 0-4.713 4.597l-.349.51-5.163-3.513.35-.51c7.2-10.516 21.587-13.232 32.136-6.056 10.55 7.19 13.263 21.517 6.076 32.031l-.363.523-5.162-3.512.35-.511a16.723 16.723 0 0 0 2.587-6.043c.913-4.361.05-8.933-2.4-12.657a16.963 16.963 0 0 0-4.612-4.686 16.763 16.763 0 0 0-6.05-2.566 16.749 16.749 0 0 0-6.587-.062z"/><path fill="#D7E9FF" d="M5.977.983l2.15 2.133L5.99 5.255.626 3.115zM66.874.624h7.5v4.983h-7.5z"/><path fill="#94C1FF" d="M78.136.624h-3.762v4.984h3.762v-.012a1.24 1.24 0 0 0 1.238-1.234V1.858A1.24 1.24 0 0 0 78.136.624z"/><g fill="#116FFF"><path d="M.626 75.999a.624.624 0 0 1-.625-.623V21.804c0-.345.28-.623.625-.623.346 0 .625.278.625.623v53.572c0 .344-.28.623-.625.623z"/><path d="M79.374 75.999H.626a.624.624 0 1 1 0-1.246h78.748a.624.624 0 1 1 0 1.246z"/><path d="M79.374 75.999a.63.63 0 0 1-.353-.108L.274 22.318a.622.622 0 1 1 .704-1.029l78.749 53.572A.623.623 0 0 1 79.374 76zm-68.748-9.967a.624.624 0 0 1-.625-.623v-24.73a.624.624 0 0 1 1.25 0v24.73c0 .344-.28.623-.625.623z"/><path d="M10.626 66.032a.624.624 0 1 1-.001-1.246l36.249-.074h.001a.624.624 0 0 1 .001 1.246l-36.249.074z"/><path d="M46.875 65.958a.63.63 0 0 1-.353-.109L10.274 41.194a.622.622 0 0 1-.164-.867.628.628 0 0 1 .868-.163l36.25 24.656a.623.623 0 0 1-.353 1.138zM4.376 75.999a.624.624 0 0 1-.625-.623v-1.134a.624.624 0 0 1 1.25 0v1.134c0 .344-.28.623-.625.623zm3.75 0a.624.624 0 0 1-.625-.623v-1.134a.624.624 0 0 1 1.25 0v1.134c0 .344-.28.623-.625.623zm3.75 0a.624.624 0 0 1-.625-.623v-1.134a.624.624 0 0 1 1.25 0v1.134c0 .344-.28.623-.625.623zm3.75 0a.624.624 0 0 1-.625-.623v-1.134a.624.624 0 0 1 1.25 0v1.134c0 .344-.28.623-.625.623zm3.75 0a.624.624 0 0 1-.625-.623v-1.134a.624.624 0 0 1 1.25 0v1.134c0 .344-.28.623-.625.623zm3.75 0a.624.624 0 0 1-.625-.623v-1.134a.624.624 0 0 1 1.25 0v1.134c0 .344-.28.623-.625.623zm3.749 0a.624.624 0 0 1-.625-.623v-1.134a.624.624 0 0 1 1.25 0v1.134c0 .344-.28.623-.625.623zm3.75 0a.624.624 0 0 1-.625-.623v-1.134a.624.624 0 0 1 1.25 0v1.134c0 .344-.28.623-.625.623zm3.75 0a.624.624 0 0 1-.625-.623v-1.134a.624.624 0 0 1 1.25 0v1.134c0 .344-.28.623-.625.623zm3.75 0a.624.624 0 0 1-.625-.623v-1.134a.624.624 0 0 1 1.25 0v1.134c0 .344-.28.623-.625.623zm3.75 0a.624.624 0 0 1-.625-.623v-1.134a.624.624 0 0 1 1.25 0v1.134c0 .344-.28.623-.625.623zm3.75 0a.624.624 0 0 1-.625-.623v-1.134a.624.624 0 0 1 1.25 0v1.134c0 .344-.28.623-.625.623zm3.75 0a.624.624 0 0 1-.625-.623v-1.134a.624.624 0 0 1 1.25 0v1.134c0 .344-.28.623-.625.623zm3.75 0a.624.624 0 0 1-.625-.623v-1.134a.624.624 0 0 1 1.25 0v1.134c0 .344-.28.623-.625.623zm3.75 0a.624.624 0 0 1-.625-.623v-1.134a.624.624 0 0 1 1.25 0v1.134c0 .344-.28.623-.625.623zm3.749 0a.624.624 0 0 1-.625-.623v-1.134a.624.624 0 0 1 1.25 0v1.134c0 .344-.28.623-.625.623zm3.75 0a.624.624 0 0 1-.625-.623v-1.134a.624.624 0 0 1 1.25 0v1.134c0 .344-.28.623-.625.623zm3.75 0a.624.624 0 0 1-.625-.623v-1.134a.624.624 0 0 1 1.25 0v1.134c0 .344-.28.623-.625.623zm3.75 0a.624.624 0 0 1-.625-.623v-1.134a.624.624 0 0 1 1.25 0v1.134c0 .344-.28.623-.625.623zm2.7-9.755a.623.623 0 0 1-.353-.11L29.823 35.935a.62.62 0 0 1-.164-.866l3.525-5.145a.628.628 0 0 1 .869-.163l44.398 30.2a.616.616 0 0 1 .263.399.627.627 0 0 1-.098.467l-3.525 5.145a.626.626 0 0 1-.517.272zm-43.53-30.986l43.367 29.496 2.82-4.116-43.366-29.497-2.82 4.117z"/><path d="M70.187 54.969a.624.624 0 0 1-.516-.973 16.05 16.05 0 0 0 2.491-5.82 16.264 16.264 0 0 0-2.31-12.188 16.297 16.297 0 0 0-4.443-4.513 16.119 16.119 0 0 0-5.825-2.471 16.24 16.24 0 0 0-6.342-.06 16.209 16.209 0 0 0-5.874 2.363 16.011 16.011 0 0 0-4.54 4.428.624.624 0 0 1-1.033-.701 17.239 17.239 0 0 1 4.89-4.77 17.438 17.438 0 0 1 6.326-2.544c2.25-.43 4.613-.406 6.83.065a17.347 17.347 0 0 1 6.273 2.66 17.55 17.55 0 0 1 4.78 4.858 17.505 17.505 0 0 1 2.491 13.128 17.27 17.27 0 0 1-2.682 6.265.623.623 0 0 1-.516.273z"/><path d="M75.362 58.47a.624.624 0 0 1-.517-.974c6.979-10.21 4.326-24.19-5.911-31.166-4.964-3.378-10.951-4.624-16.856-3.509-5.905 1.113-11.023 4.452-14.411 9.401a.628.628 0 0 1-.869.163.622.622 0 0 1-.164-.866c3.577-5.223 8.98-8.748 15.212-9.922a23.636 23.636 0 0 1 17.793 3.704c10.805 7.364 13.604 22.121 6.239 32.896a.623.623 0 0 1-.516.272z"/><path d="M65.762 31.583a.62.62 0 0 1-.352-.11.62.62 0 0 1-.163-.864l1.413-2.055a.627.627 0 0 1 .868-.162.62.62 0 0 1 .162.865l-1.412 2.055a.623.623 0 0 1-.516.271zm-6.05-2.566a.622.622 0 0 1-.612-.75l.512-2.442a.618.618 0 0 1 .74-.482c.338.07.554.4.483.737l-.512 2.442a.624.624 0 0 1-.61.495zm-6.589-.062a.625.625 0 0 1-.612-.507l-.463-2.455a.624.624 0 0 1 1.228-.231l.463 2.455a.624.624 0 0 1-.616.738zm-6.098 2.455a.624.624 0 0 1-.522-.282l-1.376-2.092a.625.625 0 0 1 1.045-.684l1.375 2.093a.622.622 0 0 1-.522.964zm28.2 18.027a.58.58 0 0 1-.13-.014l-2.45-.51a.622.622 0 0 1-.483-.738.619.619 0 0 1 .74-.482l2.45.511a.622.622 0 0 1-.127 1.233zm-2.39-7.077a.624.624 0 0 1-.115-1.235l2.464-.46a.629.629 0 0 1 .73.496.624.624 0 0 1-.499.727l-2.463.462a.635.635 0 0 1-.117.01zm-2.461-6.091a.621.621 0 0 1-.34-1.145l2.1-1.36a.626.626 0 0 1 .864.183.621.621 0 0 1-.183.862l-2.1 1.359a.624.624 0 0 1-.341.1zM33.8 38.499a.625.625 0 0 1-.516-.975l.7-1.022a.629.629 0 0 1 .868-.163.622.622 0 0 1 .165.867l-.7 1.022a.626.626 0 0 1-.517.27zm3.087 2.105a.624.624 0 0 1-.513-.978l.713-1.022a.625.625 0 0 1 1.027.71l-.713 1.022a.626.626 0 0 1-.514.268zm3.1 2.106a.622.622 0 0 1-.516-.974l.7-1.023a.628.628 0 0 1 .869-.163.623.623 0 0 1 .164.866l-.7 1.022a.625.625 0 0 1-.517.272zm3.1 2.118a.621.621 0 0 1-.517-.972l.7-1.035a.628.628 0 0 1 .868-.166.62.62 0 0 1 .167.865l-.7 1.034a.625.625 0 0 1-.518.274zm3.101 2.105a.624.624 0 0 1-.519-.971l.7-1.035a.627.627 0 0 1 .868-.169c.286.194.362.58.17.865l-.7 1.035a.626.626 0 0 1-.52.275zm3.099 2.106a.621.621 0 0 1-.517-.972l.7-1.035a.626.626 0 0 1 .868-.166.62.62 0 0 1 .167.865l-.7 1.034a.625.625 0 0 1-.518.274zm3.088 2.105a.622.622 0 0 1-.515-.976l.712-1.034a.628.628 0 0 1 .869-.16.622.622 0 0 1 .16.865l-.71 1.035a.624.624 0 0 1-.516.27zm3.1 2.106a.622.622 0 0 1-.515-.976l.712-1.034a.63.63 0 0 1 .87-.16.622.622 0 0 1 .16.866l-.712 1.034a.624.624 0 0 1-.515.27zm3.1 2.104a.624.624 0 0 1-.519-.97l.7-1.035a.63.63 0 0 1 .868-.169c.286.194.362.58.17.865l-.7 1.034a.626.626 0 0 1-.519.275zm3.099 2.106a.621.621 0 0 1-.517-.972l.7-1.034a.627.627 0 0 1 .868-.167.62.62 0 0 1 .167.865l-.7 1.035a.625.625 0 0 1-.518.274zm3.087 2.105a.623.623 0 0 1-.512-.979l.713-1.02a.627.627 0 0 1 .869-.155.62.62 0 0 1 .156.867l-.713 1.021a.627.627 0 0 1-.513.266zm3.101 2.106a.623.623 0 0 1-.513-.978l.713-1.022a.624.624 0 0 1 1.025.71l-.712 1.023a.622.622 0 0 1-.513.267zm3.098 2.107a.623.623 0 0 1-.512-.979l.713-1.022a.623.623 0 0 1 1.025.71l-.712 1.023a.623.623 0 0 1-.513.268zm7.176-62.531H6.876a.624.624 0 1 1 0-1.246h71.26a.624.624 0 1 1 0 1.246zm0 4.983H6.876a.624.624 0 1 1 0-1.245h71.26a.624.624 0 1 1 0 1.246z"/><path d="M79.374 2.48a.624.624 0 0 1-.625-.622.612.612 0 0 0-.613-.61.624.624 0 1 1 0-1.247C79.163.001 80 .835 80 1.858c0 .344-.28.623-.625.623zm-1.238 3.738a.624.624 0 1 1 0-1.245.612.612 0 0 0 .613-.611c0-.345.28-.623.625-.623s.625.278.625.623a1.862 1.862 0 0 1-1.863 1.856z"/><path d="M79.374 4.985a.624.624 0 0 1-.625-.623V1.858c0-.345.28-.623.625-.623s.625.278.625.623v2.504c0 .344-.28.623-.625.623zm-5 0a.624.624 0 0 1-.625-.623V1.858c0-.345.28-.623.625-.623.346 0 .625.278.625.623v2.504c0 .344-.28.623-.625.623zm-7.5 0a.624.624 0 0 1-.625-.623V1.858c0-.345.28-.623.625-.623.346 0 .625.278.625.623v2.504c0 .344-.28.623-.625.623zm2.5-3.115a.624.624 0 0 1-.625-.623V.624a.624.624 0 0 1 1.25 0v.623c0 .344-.28.623-.625.623zm2.5 0a.624.624 0 0 1-.625-.623V.624a.624.624 0 0 1 1.25 0v.623c0 .344-.28.623-.625.623zm0 4.348a.624.624 0 0 1-.625-.622v-.611c0-.345.28-.623.625-.623.346 0 .625.278.625.623v.61c0 .345-.28.623-.625.623zm-2.5 0a.624.624 0 0 1-.625-.622v-.611c0-.345.28-.623.625-.623.346 0 .625.278.625.623v.61c0 .345-.28.623-.625.623zM6.876 6.23a.622.622 0 0 1-.232-.044L.394 3.694a.622.622 0 1 1 .464-1.156l6.25 2.492a.622.622 0 0 1-.232 1.2z"/><path d="M.626 3.739a.622.622 0 0 1-.232-1.2L6.644.045a.622.622 0 1 1 .464 1.156L.858 3.694a.623.623 0 0 1-.232.045z"/><path d="M8.126 3.739a.623.623 0 0 1-.442-.183L6.434 2.31a.621.621 0 0 1 0-.88.626.626 0 0 1 .884 0l1.25 1.245a.621.621 0 0 1-.442 1.064z"/><path d="M6.876 4.985a.624.624 0 0 1-.442-1.064l1.25-1.246a.626.626 0 0 1 .884 0 .621.621 0 0 1 0 .881l-1.25 1.246a.624.624 0 0 1-.442.183zm57.498-1.246H10.626a.624.624 0 1 1 0-1.246h53.748a.624.624 0 1 1 0 1.246zM9.376 16.198h-7.5a.624.624 0 1 1 0-1.246h7.5a.624.624 0 1 1 0 1.246zm0-2.492h-7.5a.624.624 0 1 1 0-1.246h7.5a.624.624 0 1 1 0 1.246z"/><path d="M1.876 16.198a1.874 1.874 0 0 1-1.875-1.87c0-1.03.841-1.868 1.875-1.868a.624.624 0 1 1 0 1.246.625.625 0 0 0-.625.623c0 .343.28.623.625.623a.624.624 0 1 1 0 1.246zm13.75 3.737c-3.102 0-5.625-2.515-5.625-5.606 0-3.092 2.523-5.607 5.625-5.607s5.625 2.515 5.625 5.607c0 3.091-2.523 5.606-5.625 5.606zm0-9.967c-2.412 0-4.375 1.957-4.375 4.36 0 2.405 1.963 4.361 4.375 4.361S20 16.733 20 14.33c0-2.405-1.963-4.36-4.375-4.36z"/><path d="M15.626 16.198a1.874 1.874 0 0 1-1.875-1.87c0-1.03.84-1.868 1.875-1.868 1.034 0 1.875.838 1.875 1.869 0 1.03-.841 1.869-1.875 1.869zm0-2.492a.625.625 0 0 0-.625.623.625.625 0 0 0 1.25 0 .625.625 0 0 0-.625-.623zm58.748 3.737H21.876a.624.624 0 1 1 0-1.245h52.498a.623.623 0 1 1 0 1.245zm0-4.983H21.876a.624.624 0 1 1 0-1.246h52.498a.623.623 0 1 1 0 1.246zm1.25 2.492H23.126a.624.624 0 1 1 0-1.246h52.498a.624.624 0 1 1 0 1.246z"/><path d="M79.374 14.952a.623.623 0 0 1-.28-.066l-5-2.492a.623.623 0 1 1 .56-1.114l5 2.491a.623.623 0 0 1-.28 1.18z"/><path d="M74.374 17.443a.623.623 0 0 1-.28-1.18l5-2.492a.623.623 0 1 1 .559 1.114l-5 2.493a.623.623 0 0 1-.279.065z"/></g></g></svg>