<svg xmlns="http://www.w3.org/2000/svg" width="80" height="49" viewBox="0 0 80 49">
    <g fill="none" fill-rule="nonzero">
        <path fill="#94C1FF" d="M21.274 1.834C9.898 1.834.675 11.056.675 22.432v16.853h.01a3.744 3.744 0 0 0 3.744 3.737h16.676c.057.001.112.008.17.008h20.598V22.432c0-11.376-9.223-20.598-20.599-20.598z"/>
        <path fill="#D7E9FF" d="M21.274 10.573c-6.55 0-11.86 5.31-11.86 11.86s5.31 11.859 11.86 11.859h11.86v-11.86c0-6.55-5.31-11.86-11.86-11.86z"/>
        <circle cx="21.274" cy="22.506" r="4.994" fill="#FFF"/>
        <path fill="#94C1FF" d="M41.873 33.043h2.497v9.987h-2.497z"/>
        <path fill="#D7E9FF" d="M44.37 38.037h34.955v4.985H44.37z"/>
        <path fill="#5C9EFF" d="M34.518 6.654l-6.2-3.572.855-2.348 6.949 4.006z"/>
        <path fill="#2287FF" d="M35.106 5.952a20.572 20.572 0 0 0-6.391-3.96l-.397 1.09 6.2 3.572.588-.702z"/>
        <path fill="#D7E9FF" d="M39.376 24.305v16.229h-16.23v2.496h18.727V24.305z"/>
        <path fill="#5C9EFF" d="M21.274 1.834c-.21 0-.414.025-.624.031 11.084.333 19.974 9.402 19.974 20.567V43.03h1.248V22.432c0-11.376-9.222-20.598-20.598-20.598z"/>
        <path fill="#94C1FF" d="M40.624 43.03h1.248V24.305h-1.248z"/>
        <path fill="#5C9EFF" d="M21.274 6.902V3.78c-10.34 0-18.726 8.383-18.726 18.726H5.67c0-8.618 6.99-15.605 15.605-15.605z"/>
        <path fill="#94C1FF" d="M21.274 10.573c-.21 0-.416.02-.624.031 6.258.327 11.235 5.49 11.235 11.828v11.86h1.249v-11.86c0-6.55-5.31-11.86-11.86-11.86z"/>
        <path fill="#FFF" d="M10.663 22.432c0-6.339 4.977-11.5 11.235-11.828-.208-.01-.413-.031-.624-.031-6.55 0-11.86 5.31-11.86 11.86s5.31 11.859 11.86 11.859h1.248c-6.55 0-11.86-5.31-11.86-11.86z"/>
        <path fill="#D7E9FF" d="M4.43 43.022h1.24v-4.985H.674v1.248h.01a3.744 3.744 0 0 0 3.744 3.737z"/>
        <path fill="#D7E9FF" d="M1.934 39.285h-.01V22.432c0-11.165 8.89-20.234 19.974-20.567-.21-.006-.413-.031-.624-.031C9.898 1.834.675 11.056.675 22.432v16.853h.01a3.744 3.744 0 0 0 3.744 3.737h1.248a3.744 3.744 0 0 1-3.743-3.737z"/>
        <path fill="#FFF" d="M1.934 39.285h-.01v-1.248H.675v1.248h.01a3.744 3.744 0 0 0 3.744 3.737h1.24a3.745 3.745 0 0 1-3.735-3.737z"/>
        <path fill="#5C9EFF" d="M41.873 33.043h1.248v9.987h-1.248z"/>
        <path fill="#94C1FF" d="M44.37 38.037h1.248v4.994H44.37z"/>
        <path fill="#FFF" d="M45.618 38.037h33.707v1.241H45.618z"/>
        <g fill="#116FFF">
            <path d="M41.873 43.655H4.419c-2.254 0-3.33-1.206-3.835-2.218a5.317 5.317 0 0 1-.533-2.152V22.432C.051 10.73 9.571 1.21 21.274 1.21c11.702 0 21.223 9.52 21.223 21.222V43.03c0 .345-.28.625-.624.625zM21.274 2.458C10.26 2.458 1.3 11.418 1.3 22.432v16.853c.002.318.108 3.121 3.12 3.121h36.828V22.432c0-11.013-8.96-19.974-19.974-19.974z"/>
            <path d="M44.37 43.655H43.12a.624.624 0 1 1 0-1.249h.624v-8.739h-.624a.624.624 0 1 1 0-1.248h1.249c.344 0 .624.28.624.624v9.987c0 .345-.28.625-.624.625z"/>
            <path d="M79.325 43.655H45.618a.624.624 0 1 1 0-1.249h33.707a.624.624 0 1 1 0 1.249zM79.325 38.661H45.618a.624.624 0 1 1 0-1.248h33.707a.624.624 0 1 1 0 1.248z"/>
            <path d="M79.325 48.648a.624.624 0 0 1-.624-.624V36.79a.624.624 0 1 1 1.248 0v11.235a.624.624 0 0 1-.624.624zM50.612 43.655a.624.624 0 0 1-.625-.625v-1.248a.624.624 0 1 1 1.249 0v1.248c0 .345-.28.625-.624.625zM54.357 43.655a.624.624 0 0 1-.625-.625v-1.248a.624.624 0 1 1 1.249 0v1.248c0 .345-.28.625-.624.625zM58.102 43.655a.624.624 0 0 1-.624-.625v-1.248a.624.624 0 1 1 1.248 0v1.248c0 .345-.279.625-.624.625zM61.847 43.655a.624.624 0 0 1-.624-.625v-1.248a.624.624 0 1 1 1.248 0v1.248c0 .345-.279.625-.624.625zM65.592 43.655a.624.624 0 0 1-.624-.625v-1.248a.624.624 0 1 1 1.248 0v1.248c0 .345-.279.625-.624.625zM69.338 43.655a.624.624 0 0 1-.625-.625v-1.248a.624.624 0 1 1 1.249 0v1.248a.624.624 0 0 1-.624.625zM73.083 43.655a.624.624 0 0 1-.624-.625v-1.248a.624.624 0 1 1 1.248 0v1.248c0 .345-.28.625-.624.625zM17.374 26.173a.62.62 0 0 1-.486-.232 5.63 5.63 0 0 1-1.232-3.509 5.624 5.624 0 0 1 5.618-5.617.624.624 0 1 1 0 1.248 4.375 4.375 0 0 0-4.37 4.37c0 1.003.331 1.946.957 2.726a.624.624 0 0 1-.487 1.014zM21.274 28.05a.624.624 0 1 1 0-1.249 4.372 4.372 0 0 0 4.37-4.37c0-1.004-.332-1.948-.96-2.73a.624.624 0 1 1 .973-.781 5.629 5.629 0 0 1 1.235 3.512 5.622 5.622 0 0 1-5.618 5.618zM5.67 23.057H3.171a.624.624 0 1 1 0-1.249h1.885c.32-8.453 7.14-15.271 15.593-15.593V4.33a.624.624 0 1 1 1.248 0v2.497c0 .345-.279.624-.624.624-8.26 0-14.98 6.721-14.98 14.981 0 .345-.28.625-.625.625z"/>
            <path d="M17.235 7.98a.626.626 0 0 1-.603-.462l-.647-2.41a.624.624 0 0 1 1.207-.323l.646 2.41a.625.625 0 0 1-.603.786zM13.47 9.54a.622.622 0 0 1-.54-.312l-1.248-2.162a.623.623 0 1 1 1.08-.624l1.248 2.162a.623.623 0 0 1-.54.936zM10.24 12.022a.622.622 0 0 1-.442-.183l-1.765-1.764a.624.624 0 1 1 .883-.882l1.765 1.764a.624.624 0 0 1-.441 1.065zM7.761 15.255a.623.623 0 0 1-.312-.083l-2.167-1.25a.625.625 0 0 1 .625-1.081l2.166 1.25a.625.625 0 0 1-.312 1.164zM6.2 19.017a.621.621 0 0 1-.163-.02l-2.414-.648a.624.624 0 1 1 .324-1.206l2.414.647a.625.625 0 0 1-.162 1.227zM20.026 21.808a.623.623 0 0 1-.442-1.065l6.242-6.242a.624.624 0 1 1 .883.882l-6.242 6.242a.622.622 0 0 1-.441.183z"/>
            <path d="M22.523 24.305c-.16 0-.32-.06-.442-.183l-2.497-2.497a.624.624 0 1 1 .883-.882l2.497 2.497a.624.624 0 0 1-.441 1.065z"/>
            <path d="M16.28 30.546a.624.624 0 0 1-.441-1.065l6.242-6.241a.624.624 0 1 1 .883.882l-6.242 6.242a.623.623 0 0 1-.442.182zM36.122 5.365a.623.623 0 0 1-.401-.147 22.378 22.378 0 0 0-6.754-3.906.623.623 0 1 1 .426-1.173c2.602.947 5.001 2.334 7.13 4.123a.624.624 0 0 1-.401 1.103z"/>
            <path d="M34.518 7.278a.623.623 0 0 1-.478-1.025l1.602-1.91a.623.623 0 1 1 .955.803l-1.602 1.91a.62.62 0 0 1-.477.222zM31.577 5.217a.625.625 0 0 1-.54-.937l1.245-2.156a.624.624 0 0 1 1.08.624l-1.245 2.157a.623.623 0 0 1-.54.312zM28.318 3.706a.624.624 0 0 1-.586-.837L28.587.52a.624.624 0 0 1 1.172.426l-.854 2.348a.625.625 0 0 1-.587.411zM5.67 38.661H1.923a.624.624 0 1 1 0-1.248h3.745a.624.624 0 1 1 0 1.248z"/>
            <path d="M5.67 42.406a.624.624 0 0 1-.625-.624v-3.745a.624.624 0 1 1 1.248 0v3.745c0 .345-.279.624-.624.624zM33.134 34.916h-11.86c-6.883 0-12.484-5.6-12.484-12.484s5.6-12.484 12.484-12.484c6.883 0 12.484 5.6 12.484 12.484v11.86c0 .345-.28.624-.624.624zm-11.86-23.72c-6.196 0-11.235 5.041-11.235 11.236 0 6.196 5.04 11.235 11.235 11.235H32.51V22.432c0-6.195-5.04-11.235-11.236-11.235zM39.376 41.158a.624.624 0 0 1-.624-.624V24.305a.624.624 0 1 1 1.248 0v16.229c0 .345-.28.624-.624.624z"/>
            <path d="M39.376 41.158h-16.23a.624.624 0 1 1 0-1.248h16.23a.624.624 0 1 1 0 1.248z"/>
        </g>
    </g>
</svg>
